<?xml version="1.0" encoding="UTF-8"?>
<!-- Generator: visioncortex VTracer 0.6.3 -->
<svg version="1.1" xmlns="http://www.w3.org/2000/svg" width="1280" height="960">
<path d="M0 0 C422.4 0 844.8 0 1280 0 C1280 316.8 1280 633.6 1280 960 C857.6 960 435.2 960 0 960 C0 643.2 0 326.4 0 0 Z " fill="#FBFCFE" transform="translate(0,0)"/>
<path d="M0 0 C0.65 -0 1.3 -0.01 1.97 -0.01 C4.15 -0.02 6.33 -0.01 8.51 -0 C10.07 -0.01 11.63 -0.01 13.2 -0.02 C17.45 -0.02 21.7 -0.02 25.95 -0.01 C30.41 -0.01 34.86 -0.01 39.32 -0.02 C46.82 -0.02 54.32 -0.02 61.82 -0.01 C70.45 0 79.09 0 87.73 -0.01 C95.16 -0.02 102.59 -0.02 110.02 -0.02 C114.46 -0.01 118.89 -0.01 123.32 -0.02 C127.5 -0.02 131.68 -0.02 135.86 -0.01 C137.38 -0.01 138.9 -0.01 140.42 -0.01 C161.01 -0.07 183.37 1.91 199.32 16.38 C209.68 27.48 214.01 41.72 213.78 56.65 C212.3 82.05 200.36 102.52 181.63 119.25 C169.87 129.12 156.49 137.37 141.97 142.41 C139.7 143.04 139.7 143.04 138.63 144.25 C139.66 144.64 140.68 145.03 141.74 145.43 C156.01 151.09 166.12 158.89 172.63 173.25 C178.51 189.69 175.02 211.43 168.02 227.07 C164.36 234.18 159.89 241.22 154.63 247.25 C153.97 247.25 153.31 247.25 152.63 247.25 C152.38 247.83 152.14 248.41 151.89 249 C141.65 267.3 112.25 280.07 93.36 286 C79.1 289.88 66 290.67 51.27 290.59 C49.05 290.59 46.83 290.59 44.61 290.6 C38.63 290.6 32.65 290.58 26.67 290.56 C20.41 290.54 14.14 290.54 7.88 290.53 C-2.63 290.53 -13.13 290.51 -23.63 290.48 C-34.44 290.45 -45.26 290.43 -56.07 290.42 C-56.73 290.42 -57.4 290.42 -58.09 290.42 C-61.44 290.41 -64.79 290.41 -68.15 290.4 C-95.89 290.37 -123.63 290.32 -151.37 290.25 C-151.87 288.77 -151.87 288.77 -152.37 287.25 C-150.73 285.26 -149.8 284.34 -147.23 283.81 C-146.4 283.78 -145.58 283.75 -144.72 283.71 C-143.31 283.65 -143.31 283.65 -141.87 283.58 C-140.85 283.55 -139.83 283.52 -138.78 283.49 C-137.2 283.42 -137.2 283.42 -135.59 283.36 C-133.35 283.27 -131.11 283.19 -128.87 283.12 C-125.48 283.01 -122.09 282.87 -118.7 282.73 C-116.52 282.65 -114.34 282.57 -112.16 282.49 C-110.66 282.43 -110.66 282.43 -109.13 282.37 C-102.14 282.15 -95.32 282.54 -88.37 283.25 C-88.37 282.59 -88.37 281.93 -88.37 281.25 C-89 281.22 -89.63 281.18 -90.27 281.15 C-96.84 280.78 -103.41 280.4 -109.98 280.03 C-112.43 279.89 -114.88 279.75 -117.33 279.61 C-120.86 279.41 -124.39 279.21 -127.92 279.01 C-129 278.95 -130.08 278.89 -131.2 278.82 C-150.94 277.69 -150.94 277.69 -152.37 276.25 C-152.44 274.07 -152.46 271.88 -152.43 269.69 C-152.43 268.49 -152.42 267.3 -152.41 266.06 C-152.4 265.14 -152.38 264.21 -152.37 263.25 C-149.48 261.81 -146.86 262 -143.63 261.87 C-142.59 261.82 -142.59 261.82 -141.53 261.78 C-139.23 261.68 -136.94 261.59 -134.65 261.5 C-133.06 261.43 -131.47 261.37 -129.88 261.3 C-125.69 261.13 -121.51 260.96 -117.32 260.79 C-113.05 260.62 -108.78 260.45 -104.51 260.27 C-96.13 259.93 -87.75 259.59 -79.37 259.25 C-82.74 258.13 -85.59 257.97 -89.14 257.77 C-90.16 257.71 -90.16 257.71 -91.21 257.65 C-93.46 257.53 -95.72 257.4 -97.98 257.28 C-99.54 257.19 -101.11 257.11 -102.67 257.02 C-106.79 256.78 -110.91 256.56 -115.03 256.33 C-119.23 256.1 -123.43 255.86 -127.64 255.63 C-135.88 255.16 -144.13 254.71 -152.37 254.25 C-153.69 251.61 -153.47 249.58 -153.43 246.63 C-153.43 245.63 -153.42 244.62 -153.41 243.59 C-153.4 242.82 -153.38 242.05 -153.37 241.25 C-150.15 239.64 -146.61 239.97 -143.07 239.87 C-142.21 239.84 -141.35 239.81 -140.46 239.78 C-137.62 239.68 -134.77 239.59 -131.93 239.5 C-129.96 239.43 -127.99 239.37 -126.02 239.3 C-120.82 239.13 -115.63 238.96 -110.44 238.79 C-105.15 238.62 -99.85 238.45 -94.56 238.27 C-84.16 237.93 -73.77 237.59 -63.37 237.25 C-65.42 235.21 -69.6 235.85 -72.42 235.71 C-73.27 235.67 -74.11 235.62 -74.98 235.57 C-76.82 235.48 -78.66 235.38 -80.5 235.28 C-83.41 235.13 -86.31 234.97 -89.22 234.82 C-97.49 234.36 -105.76 233.92 -114.03 233.49 C-119.08 233.22 -124.13 232.95 -129.19 232.67 C-131.12 232.56 -133.04 232.46 -134.97 232.36 C-137.67 232.22 -140.37 232.08 -143.06 231.92 C-143.86 231.89 -144.66 231.85 -145.49 231.81 C-149.24 231.59 -151.18 231.38 -154.37 229.25 C-154.7 226.91 -154.7 226.91 -154.62 224.19 C-154.61 223.29 -154.59 222.39 -154.58 221.47 C-154.37 219.25 -154.37 219.25 -153.37 218.25 C-151.14 218.07 -148.91 217.95 -146.68 217.87 C-145.97 217.84 -145.27 217.81 -144.55 217.78 C-142.21 217.68 -139.87 217.59 -137.54 217.5 C-135.9 217.43 -134.27 217.37 -132.63 217.3 C-129.19 217.16 -125.74 217.03 -122.3 216.9 C-117.94 216.73 -113.58 216.55 -109.22 216.38 C-105.83 216.24 -102.44 216.1 -99.05 215.97 C-97.45 215.91 -95.84 215.84 -94.24 215.78 C-82.61 215.31 -71.01 215.18 -59.37 215.25 C-59.37 214.26 -59.37 213.27 -59.37 212.25 C-60.33 212.26 -61.28 212.27 -62.26 212.28 C-72.42 212.35 -82.52 212 -92.66 211.45 C-94.25 211.36 -95.85 211.28 -97.45 211.19 C-100.76 211.02 -104.07 210.84 -107.38 210.65 C-111.61 210.42 -115.84 210.2 -120.07 209.98 C-123.36 209.81 -126.64 209.63 -129.92 209.45 C-131.48 209.37 -133.04 209.29 -134.6 209.21 C-136.78 209.09 -138.95 208.97 -141.13 208.85 C-142.98 208.75 -142.98 208.75 -144.87 208.65 C-148.6 208.23 -151.8 207.38 -155.37 206.25 C-155.37 203.28 -155.37 200.31 -155.37 197.25 C-152.42 195.78 -149.67 195.99 -146.37 195.87 C-145.65 195.84 -144.93 195.81 -144.18 195.78 C-141.77 195.68 -139.36 195.59 -136.94 195.5 C-135.24 195.43 -133.53 195.37 -131.83 195.3 C-128.23 195.16 -124.62 195.03 -121.02 194.9 C-117.4 194.76 -113.78 194.62 -110.16 194.48 C-85.88 193.52 -61.67 193.04 -37.37 193.25 C-37.37 192.59 -37.37 191.93 -37.37 191.25 C-57.35 190.11 -77.33 188.97 -97.31 187.84 C-106.6 187.31 -115.88 186.78 -125.17 186.25 C-135.91 185.63 -146.65 185.02 -157.39 184.42 C-158.27 184.37 -159.14 184.32 -160.04 184.27 C-184.55 182.89 -209.06 181.65 -233.59 180.82 C-234.54 180.78 -235.49 180.75 -236.47 180.72 C-238.17 180.66 -239.88 180.61 -241.59 180.55 C-247.21 180.37 -252.78 179.87 -258.37 179.25 C-258.37 178.92 -258.37 178.59 -258.37 178.25 C-248 177.23 -237.63 176.87 -227.23 176.51 C-225.32 176.45 -223.4 176.38 -221.49 176.31 C-217.39 176.17 -213.3 176.02 -209.2 175.88 C-202.7 175.66 -196.21 175.43 -189.71 175.2 C-178.25 174.8 -166.79 174.4 -155.33 174 C-138.11 173.4 -120.89 172.8 -103.67 172.19 C-97.23 171.96 -90.79 171.74 -84.35 171.52 C-80.32 171.38 -76.29 171.24 -72.26 171.09 C-70.41 171.03 -68.57 170.96 -66.72 170.9 C-54.59 170.48 -42.48 169.93 -30.37 169.25 C-30.37 168.59 -30.37 167.93 -30.37 167.25 C-31.65 167.28 -31.65 167.28 -32.95 167.31 C-47.85 167.49 -62.71 166.54 -77.59 165.7 C-81.54 165.48 -85.49 165.27 -89.45 165.05 C-96.09 164.69 -102.74 164.32 -109.38 163.95 C-116.98 163.52 -124.58 163.1 -132.18 162.68 C-140.37 162.24 -148.56 161.78 -156.75 161.33 C-159.06 161.2 -161.37 161.07 -163.68 160.95 C-168.07 160.71 -172.45 160.46 -176.83 160.22 C-177.53 160.18 -178.23 160.14 -178.95 160.1 C-186.54 159.67 -194.13 159.21 -201.72 158.69 C-202.39 158.64 -203.07 158.59 -203.77 158.55 C-206.95 158.33 -210.13 158.1 -213.31 157.87 C-221.01 157.32 -228.65 157.15 -236.37 157.25 C-236.37 156.92 -236.37 156.59 -236.37 156.25 C-225.01 154.48 -213.78 153.77 -202.29 153.38 C-200.43 153.32 -198.56 153.25 -196.69 153.18 C-191.67 152.99 -186.64 152.81 -181.61 152.64 C-176.33 152.45 -171.05 152.26 -165.77 152.07 C-156.91 151.74 -148.05 151.43 -139.19 151.11 C-127.83 150.71 -116.48 150.3 -105.13 149.89 C-95.33 149.53 -85.54 149.18 -75.74 148.83 C-73.65 148.75 -71.56 148.68 -69.46 148.6 C-63.49 148.39 -57.52 148.17 -51.55 147.96 C-49.75 147.9 -47.94 147.83 -46.14 147.77 C-21.91 146.89 -21.91 146.89 -11.37 148.25 C-11.37 147.59 -11.37 146.93 -11.37 146.25 C-18.12 145.86 -24.87 145.47 -31.63 145.08 C-32.67 145.02 -33.72 144.96 -34.8 144.9 C-47.62 144.16 -60.44 143.42 -73.27 142.68 C-74.45 142.61 -75.64 142.54 -76.86 142.47 C-81.66 142.2 -86.46 141.92 -91.27 141.64 C-104.78 140.87 -118.3 140.08 -131.82 139.29 C-139.54 138.84 -147.27 138.39 -155 137.94 C-155.71 137.9 -156.43 137.86 -157.17 137.82 C-179.56 136.53 -201.94 135.52 -224.37 135.25 C-224.04 134.26 -223.71 133.27 -223.37 132.25 C-150.77 129.61 -78.17 126.97 -3.37 124.25 C-3.37 123.59 -3.37 122.93 -3.37 122.25 C-4.48 122.26 -5.59 122.27 -6.73 122.28 C-17.17 122.34 -27.54 122.05 -37.97 121.44 C-39.53 121.36 -41.1 121.27 -42.66 121.18 C-46 121 -49.33 120.81 -52.67 120.62 C-57.97 120.31 -63.27 120.02 -68.57 119.72 C-76.98 119.25 -85.39 118.78 -93.8 118.3 C-108.8 117.45 -123.8 116.61 -138.81 115.77 C-144.05 115.48 -149.29 115.18 -154.53 114.88 C-173.14 113.82 -191.74 112.87 -210.37 112.25 C-210.37 111.92 -210.37 111.59 -210.37 111.25 C-209.46 111.19 -208.54 111.13 -207.6 111.07 C-206.41 110.99 -205.22 110.9 -204 110.82 C-202.22 110.69 -202.22 110.69 -200.41 110.57 C-197.46 110.44 -197.46 110.44 -195.37 109.25 C-193.06 109.09 -190.74 108.99 -188.42 108.91 C-187.33 108.88 -187.33 108.88 -186.23 108.84 C-183.79 108.76 -181.35 108.68 -178.91 108.61 C-177.16 108.55 -175.42 108.49 -173.67 108.43 C-169.91 108.31 -166.14 108.19 -162.38 108.07 C-156.41 107.88 -150.44 107.68 -144.47 107.49 C-135 107.18 -125.54 106.87 -116.08 106.57 C-99.19 106.02 -82.3 105.47 -65.41 104.92 C-59.49 104.73 -53.58 104.54 -47.66 104.35 C-43.95 104.23 -40.23 104.11 -36.52 103.99 C-34.82 103.93 -33.12 103.88 -31.42 103.82 C-20.06 103.47 -8.72 102.93 2.63 102.25 C2.63 101.59 2.63 100.93 2.63 100.25 C1.84 100.27 1.05 100.29 0.24 100.3 C-11.33 100.43 -22.84 99.79 -34.38 99.08 C-37.79 98.88 -41.19 98.69 -44.6 98.5 C-46.76 98.37 -48.92 98.24 -51.08 98.11 C-52.1 98.05 -53.12 97.99 -54.17 97.94 C-55.11 97.88 -56.04 97.82 -57 97.76 C-58.23 97.68 -58.23 97.68 -59.49 97.61 C-60.42 97.43 -60.42 97.43 -61.37 97.25 C-61.7 96.59 -62.03 95.93 -62.37 95.25 C-61.26 92.94 -61.26 92.94 -59.62 90.25 C-59.09 89.37 -58.56 88.48 -58.01 87.57 C-56.37 85.25 -56.37 85.25 -53.37 83.25 C-50.7 82.94 -48.12 82.74 -45.45 82.62 C-44.24 82.56 -44.24 82.56 -43.01 82.49 C-40.36 82.36 -37.71 82.24 -35.06 82.13 C-34.16 82.09 -33.26 82.04 -32.33 82 C-13.01 81.1 6.29 81.04 25.63 81.25 C25.63 80.59 25.63 79.93 25.63 79.25 C24.76 79.21 23.89 79.16 23 79.11 C14.82 78.66 6.64 78.2 -1.55 77.74 C-5.75 77.5 -9.96 77.27 -14.16 77.04 C-18.22 76.81 -22.28 76.59 -26.34 76.36 C-27.89 76.27 -29.44 76.18 -30.99 76.1 C-33.15 75.98 -35.32 75.86 -37.49 75.73 C-38.73 75.67 -39.96 75.6 -41.23 75.53 C-43.75 75.31 -45.96 74.98 -48.37 74.25 C-47.9 69.2 -45.36 65.24 -42.37 61.25 C-39.53 59.83 -36.99 60 -33.81 59.87 C-33.14 59.84 -32.46 59.81 -31.77 59.78 C-29.54 59.68 -27.31 59.59 -25.08 59.5 C-23.54 59.43 -21.99 59.37 -20.45 59.3 C-16.38 59.13 -12.32 58.96 -8.25 58.79 C-4.1 58.62 0.05 58.45 4.2 58.27 C12.34 57.93 20.48 57.59 28.63 57.25 C28.63 56.59 28.63 55.93 28.63 55.25 C27.61 55.26 26.6 55.28 25.56 55.29 C15.53 55.36 5.57 55.05 -4.43 54.45 C-6.77 54.32 -9.1 54.18 -11.44 54.05 C-19.43 53.6 -27.41 53.06 -35.37 52.25 C-36.37 49.25 -36.37 49.25 -35.3 46.81 C-34.77 45.92 -34.23 45.04 -33.68 44.13 C-33.17 43.24 -32.65 42.35 -32.11 41.43 C-30.07 38.87 -29.51 38.78 -26.37 38.25 C-24.23 38.11 -22.08 38.01 -19.93 37.94 C-18.62 37.9 -17.31 37.85 -15.96 37.81 C-14.53 37.77 -13.1 37.73 -11.68 37.68 C-10.2 37.64 -8.73 37.59 -7.26 37.55 C-4.17 37.45 -1.08 37.36 2.01 37.27 C5.94 37.15 9.87 37.03 13.81 36.9 C16.85 36.81 19.89 36.71 22.94 36.62 C24.39 36.58 25.84 36.54 27.28 36.49 C35.14 36.23 42.83 36.16 50.63 37.25 C50.63 36.59 50.63 35.93 50.63 35.25 C49.85 35.21 49.07 35.16 48.27 35.11 C40.88 34.65 33.5 34.2 26.11 33.74 C22.32 33.51 18.52 33.27 14.73 33.04 C11.06 32.81 7.39 32.59 3.72 32.36 C2.32 32.27 0.93 32.19 -0.46 32.1 C-4.77 31.84 -9.07 31.56 -13.37 31.25 C-14.91 31.15 -14.91 31.15 -16.49 31.04 C-17.85 30.93 -17.85 30.93 -19.25 30.82 C-20.03 30.76 -20.81 30.7 -21.61 30.63 C-22.19 30.51 -22.77 30.38 -23.37 30.25 C-24.37 28.25 -24.37 28.25 -23.49 25.5 C-19.37 16.97 -19.37 16.97 -14.06 15.07 C-9.87 14.57 -5.81 14.43 -1.59 14.43 C-0.06 14.38 1.48 14.33 3.02 14.28 C7.04 14.14 11.07 14.08 15.09 14.04 C19.21 13.98 23.33 13.85 27.44 13.73 C35.5 13.51 43.56 13.36 51.63 13.25 C51.63 12.59 51.63 11.93 51.63 11.25 C50.63 11.26 49.64 11.27 48.62 11.28 C38.08 11.36 27.59 11.05 17.07 10.51 C14.47 10.38 11.87 10.26 9.28 10.14 C7.6 10.06 5.92 9.97 4.25 9.89 C3.1 9.84 3.1 9.84 1.93 9.79 C-2.79 9.53 -6.88 8.71 -11.37 7.25 C-9.18 0.84 -6.55 0 0 0 Z " fill="#000002" transform="translate(725.3720092773438,263.74603271484375)"/>
<path d="M0 0 C3.31 -0.03 6.62 -0.05 9.94 -0.06 C10.88 -0.07 11.83 -0.08 12.8 -0.09 C14.15 -0.09 14.15 -0.09 15.53 -0.1 C16.78 -0.11 16.78 -0.11 18.05 -0.11 C20 0 20 0 21 1 C21.16 3.59 21.26 6.16 21.32 8.75 C21.34 9.53 21.36 10.3 21.38 11.1 C21.44 13.59 21.5 16.08 21.56 18.56 C21.61 20.24 21.65 21.93 21.69 23.61 C21.8 27.74 21.9 31.87 22 36 C24.57 36 25.4 35.14 27.5 33.69 C37.21 27.56 48.03 26.39 59.25 28.66 C71.25 32.2 79.18 39.87 85.47 50.48 C92.09 62.92 92.88 76.62 89.05 90.18 C84.58 102.2 76.21 111.36 64.8 117.11 C55.38 120.6 41.72 120.9 32.31 117.31 C30.09 116.22 30.09 116.22 28 115 C27.22 114.54 26.44 114.09 25.63 113.62 C23.72 112.46 21.86 111.24 20 110 C19.67 112.97 19.34 115.94 19 119 C16.02 119.03 13.04 119.05 10.06 119.06 C9.21 119.07 8.36 119.08 7.49 119.09 C6.68 119.09 5.87 119.09 5.04 119.1 C4.29 119.1 3.54 119.11 2.77 119.11 C1 119 1 119 0 118 C-0.1 116.47 -0.12 114.93 -0.12 113.4 C-0.12 112.41 -0.12 111.41 -0.12 110.39 C-0.12 109.29 -0.12 108.19 -0.11 107.05 C-0.11 105.9 -0.11 104.75 -0.11 103.57 C-0.11 99.74 -0.11 95.92 -0.1 92.09 C-0.1 89.45 -0.09 86.8 -0.09 84.16 C-0.09 77.9 -0.08 71.63 -0.07 65.37 C-0.06 58.25 -0.06 51.12 -0.05 43.99 C-0.04 29.33 -0.02 14.66 0 0 Z " fill="#000002" transform="translate(497,574)"/>
<path d="M0 0 C2.4 1.67 2.4 1.67 4 3 C4.3 2.35 4.59 1.69 4.9 1.02 C7.83 -1.8 10.02 -1.44 13.97 -1.4 C14.85 -1.37 15.72 -1.34 16.62 -1.31 C17.51 -1.3 18.39 -1.29 19.3 -1.28 C25.83 -1.17 25.83 -1.17 27 0 C27.1 2.68 27.13 5.33 27.11 8.01 C27.11 8.85 27.11 9.69 27.11 10.55 C27.11 13.34 27.11 16.12 27.1 18.91 C27.1 20.84 27.09 22.76 27.09 24.69 C27.09 29.77 27.08 34.85 27.07 39.93 C27.06 45.12 27.05 50.3 27.05 55.48 C27.04 65.65 27.02 75.83 27 86 C24.04 86.05 21.08 86.09 18.12 86.12 C17.28 86.14 16.44 86.16 15.57 86.18 C14.77 86.18 13.96 86.19 13.13 86.2 C12.39 86.21 11.65 86.22 10.88 86.23 C9 86 9 86 7 84 C6.6 82.01 6.26 80.01 6 78 C5.43 78.41 4.86 78.82 4.28 79.24 C3.51 79.78 2.73 80.32 1.94 80.88 C1.18 81.41 0.43 81.94 -0.35 82.49 C-9.76 87.84 -23.37 87.63 -33.69 85.09 C-39.79 82.67 -45.09 79.33 -50 75 C-50.63 74.45 -51.26 73.91 -51.9 73.34 C-56.18 69.36 -58.85 65.42 -61 60 C-61.3 59.31 -61.6 58.62 -61.91 57.9 C-66.23 46.24 -65.28 32.53 -60.61 21.19 C-54.04 8.19 -45.39 1.22 -32 -4 C-21.11 -7.46 -10 -4.68 0 0 Z " fill="#000002" transform="translate(795,607)"/>
<path d="M0 0 C0.93 0.74 1.86 1.49 2.81 2.25 C3.14 0.6 3.47 -1.05 3.81 -2.75 C7.12 -2.78 10.44 -2.8 13.75 -2.81 C15.17 -2.83 15.17 -2.83 16.62 -2.84 C17.96 -2.84 17.96 -2.84 19.34 -2.85 C20.59 -2.86 20.59 -2.86 21.86 -2.86 C23.81 -2.75 23.81 -2.75 24.81 -1.75 C24.91 0.93 24.94 3.58 24.93 6.26 C24.93 7.1 24.93 7.94 24.93 8.8 C24.93 11.59 24.92 14.37 24.91 17.16 C24.91 19.09 24.91 21.01 24.91 22.94 C24.9 28.02 24.89 33.1 24.88 38.18 C24.87 43.37 24.87 48.55 24.86 53.73 C24.85 63.9 24.83 74.08 24.81 84.25 C21.85 84.28 18.9 84.3 15.94 84.31 C15.1 84.32 14.25 84.33 13.39 84.34 C12.58 84.34 11.78 84.34 10.95 84.35 C9.83 84.36 9.83 84.36 8.69 84.36 C6.81 84.25 6.81 84.25 4.81 83.25 C4.41 80.93 4.07 78.59 3.81 76.25 C3.24 76.66 2.68 77.07 2.09 77.49 C1.32 78.03 0.55 78.57 -0.25 79.12 C-1 79.66 -1.76 80.19 -2.54 80.74 C-8.67 84.23 -14.69 84.59 -21.56 84.56 C-22.36 84.58 -23.16 84.59 -23.98 84.61 C-36.09 84.62 -46.25 79.04 -55.06 70.94 C-63.74 61.62 -66.78 48.71 -66.4 36.3 C-65.57 24.37 -60.34 13.02 -52.19 4.25 C-36.63 -7.57 -16.95 -11.9 0 0 Z " fill="#000002" transform="translate(661.1875,608.75)"/>
<path d="M0 0 C10.44 6.44 17.89 16.9 21.39 28.64 C22.89 36.16 23.01 43.18 21.51 50.68 C-0.6 50.68 -22.71 50.68 -45.49 50.68 C-42.92 58.4 -39.19 61.01 -32.8 65.62 C-26.38 67.68 -19.37 67.66 -12.99 65.49 C-10.37 63.7 -10.37 63.7 -7.99 61.12 C-3.56 56.8 1.16 56.45 7.08 56.5 C8.22 56.53 8.22 56.53 9.38 56.55 C10.56 56.57 10.56 56.57 11.76 56.58 C13.67 56.61 15.59 56.64 17.51 56.68 C18.48 59.8 18.69 61.24 17.39 64.29 C10.54 74.81 1.72 83.69 -10.74 86.99 C-24.72 89.52 -37.66 87.2 -49.67 79.68 C-59.91 72.41 -67.05 62.51 -69.25 49.95 C-70.83 35.35 -67.25 22.16 -58.18 10.62 C-43.58 -6.24 -19.59 -10.38 0 0 Z " fill="#000002" transform="translate(326.4921875,607.3203125)"/>
<path d="M0 0 C0.75 0 1.5 0.01 2.28 0.01 C11.77 0.21 19.06 2.76 26.75 8.31 C27.76 9.03 28.77 9.76 29.81 10.5 C37.23 16.99 41.9 26.06 44.75 35.31 C44.75 42.24 44.75 49.17 44.75 56.31 C22.64 56.31 0.53 56.31 -22.25 56.31 C-21.14 61.85 -19.91 64.41 -15.31 67.7 C-8.01 72.38 -1.91 73.07 6.75 72.31 C10.79 71.01 13.41 68.66 16.38 65.62 C20.83 61.29 26.69 62.19 32.56 62.25 C33.35 62.25 34.14 62.26 34.95 62.26 C36.88 62.28 38.82 62.29 40.75 62.31 C41.66 65.26 41.85 66.06 40.69 69.06 C33.62 80.93 24.02 89.43 10.34 92.93 C-4.82 95.17 -17.88 91.65 -30.29 82.87 C-32.06 81.44 -33.66 79.95 -35.25 78.31 C-36.03 77.51 -36.03 77.51 -36.83 76.68 C-44.47 67.73 -47.17 55.59 -46.73 44.09 C-45.42 33.88 -41.82 24.32 -35.25 16.31 C-34.77 15.7 -34.3 15.09 -33.8 14.46 C-25.76 5.28 -11.98 -0.09 0 0 Z " fill="#000002" transform="translate(1060.25,601.6875)"/>
<path d="M0 0 C2.77 -0.13 5.54 -0.23 8.31 -0.31 C9.49 -0.38 9.49 -0.38 10.69 -0.44 C11.45 -0.46 12.21 -0.47 12.99 -0.49 C13.68 -0.51 14.38 -0.54 15.1 -0.57 C17 0 17 0 18.54 1.93 C20.5 6.04 21.93 10.25 23.36 14.57 C23.66 15.49 23.97 16.41 24.28 17.35 C24.93 19.29 25.57 21.22 26.21 23.16 C27.19 26.12 28.18 29.09 29.17 32.05 C29.79 33.93 30.42 35.81 31.04 37.7 C31.34 38.58 31.64 39.47 31.94 40.38 C32.21 41.21 32.48 42.03 32.76 42.88 C33.12 43.97 33.12 43.97 33.49 45.08 C34 47 34 47 34 50 C34.66 50 35.32 50 36 50 C38.21 44.33 40.03 38.66 41.63 32.79 C42.11 31.06 42.59 29.32 43.08 27.58 C43.82 24.87 44.57 22.16 45.31 19.45 C46.04 16.81 46.77 14.18 47.5 11.54 C47.72 10.73 47.95 9.92 48.17 9.08 C49.13 5.65 50.01 2.99 52 0 C54.79 -0.22 57.35 -0.28 60.12 -0.19 C60.88 -0.17 61.63 -0.16 62.41 -0.15 C64.27 -0.11 66.14 -0.06 68 0 C70.07 5.35 71.86 10.67 73.41 16.19 C73.62 16.94 73.84 17.69 74.06 18.46 C74.73 20.83 75.4 23.19 76.06 25.56 C76.51 27.15 76.96 28.74 77.42 30.33 C78.25 33.26 79.08 36.19 79.9 39.12 C80.09 39.76 80.27 40.41 80.46 41.07 C80.83 42.39 81.19 43.7 81.55 45.02 C82.26 48.28 82.26 48.28 84 51 C84.27 50.23 84.53 49.45 84.81 48.66 C93.77 22.62 93.77 22.62 98.06 10.31 C98.35 9.49 98.64 8.67 98.93 7.82 C100.88 2.24 100.88 2.24 102 0 C107.28 0 112.56 0 118 0 C119.07 4.28 118.86 5.29 117.51 9.31 C116.96 10.98 116.96 10.98 116.39 12.69 C115.98 13.92 115.56 15.16 115.12 16.44 C114.45 18.46 113.79 20.48 113.12 22.5 C112.62 24.02 112.12 25.53 111.62 27.05 C109.22 34.29 106.9 41.55 104.58 48.81 C104.01 50.6 104.01 50.6 103.42 52.44 C101.87 57.3 100.32 62.17 98.77 67.04 C97.67 70.49 96.57 73.95 95.46 77.4 C95.13 78.45 94.79 79.51 94.45 80.6 C94.14 81.56 93.83 82.52 93.52 83.51 C93.25 84.36 92.98 85.2 92.7 86.08 C92 88 92 88 91 89 C88.88 89.15 86.75 89.22 84.62 89.25 C82.88 89.29 82.88 89.29 81.1 89.33 C78 89 78 89 76.41 87.77 C74.73 85.66 74.13 83.89 73.39 81.3 C72.97 79.87 72.97 79.87 72.55 78.42 C72.26 77.39 71.98 76.37 71.68 75.31 C71.22 73.73 71.22 73.73 70.76 72.12 C69.79 68.75 68.83 65.37 67.88 62 C67.22 59.73 66.57 57.45 65.92 55.18 C64.48 50.18 63.05 45.17 61.63 40.16 C61.13 38.43 60.57 36.71 60 35 C53.88 52.87 48.34 70.88 43 89 C40.9 89.08 38.79 89.14 36.69 89.19 C35.52 89.22 34.34 89.26 33.14 89.29 C30 89 30 89 28.43 87.83 C26.6 85.49 25.86 83.3 24.93 80.48 C24.56 79.35 24.18 78.22 23.79 77.05 C23.39 75.82 22.99 74.59 22.58 73.32 C22.15 72.03 21.72 70.74 21.3 69.45 C20.17 66.04 19.05 62.62 17.93 59.2 C16.82 55.81 15.7 52.42 14.58 49.03 C13.27 45.07 11.96 41.1 10.66 37.14 C8.74 31.26 6.8 25.39 4.8 19.55 C4.47 18.58 4.14 17.61 3.8 16.61 C3.19 14.84 2.58 13.08 1.97 11.32 C0.64 7.43 -0.38 4.18 0 0 Z " fill="#000002" transform="translate(347,604)"/>
<path d="M0 0 C1.05 -0.01 2.09 -0.03 3.17 -0.04 C4.87 -0.04 4.87 -0.04 6.61 -0.05 C8.37 -0.06 8.37 -0.06 10.16 -0.07 C12.64 -0.08 15.12 -0.08 17.61 -0.08 C21.38 -0.08 25.15 -0.12 28.93 -0.16 C31.34 -0.16 33.76 -0.17 36.17 -0.17 C37.85 -0.19 37.85 -0.19 39.56 -0.21 C47.19 -0.17 55.58 0.59 61.67 5.7 C62.99 7.23 62.99 7.23 64.99 10.29 C65.52 11.03 66.04 11.77 66.59 12.53 C69.63 18.51 68.79 26.76 67.33 33.18 C63.1 44.8 53.54 54.91 42.43 60.17 C32.68 64.41 23.56 64.56 13.12 64.49 C11.58 64.48 10.04 64.48 8.51 64.48 C4.49 64.47 0.47 64.45 -3.54 64.43 C-7.65 64.41 -11.76 64.4 -15.87 64.39 C-23.92 64.37 -31.96 64.33 -40.01 64.29 C-40.34 63.63 -40.67 62.97 -41.01 62.29 C-40.06 60.15 -40.06 60.15 -38.54 57.47 C-37.69 55.97 -37.69 55.97 -36.83 54.44 C-36.21 53.36 -35.59 52.28 -34.95 51.17 C-34.32 50.05 -33.69 48.94 -33.04 47.8 C-28.03 39 -22.94 30.25 -17.81 21.52 C-14.51 15.91 -11.33 10.26 -8.29 4.5 C-5.94 0.44 -4.53 0.04 0 0 Z " fill="#FCFDFF" transform="translate(745.009521484375,423.70947265625)"/>
<path d="M0 0 C8.6 6.1 12.82 15.74 14.59 25.81 C15.32 31.46 15.24 37.08 15.2 42.76 C15.19 44.03 15.19 45.31 15.19 46.62 C15.18 49.96 15.16 53.3 15.14 56.64 C15.12 60.07 15.11 63.49 15.1 66.92 C15.08 73.61 15.04 80.31 15 87 C11.71 87.09 8.42 87.14 5.12 87.19 C4.19 87.21 3.25 87.24 2.29 87.26 C1.39 87.27 0.49 87.28 -0.43 87.29 C-1.26 87.31 -2.08 87.32 -2.94 87.34 C-3.62 87.23 -4.3 87.12 -5 87 C-7.19 83.72 -7.25 82.73 -7.27 78.92 C-7.28 77.89 -7.29 76.85 -7.3 75.78 C-7.3 74.67 -7.31 73.55 -7.31 72.39 C-7.33 70.03 -7.36 67.66 -7.38 65.29 C-7.41 61.55 -7.44 57.82 -7.46 54.08 C-7.48 50.48 -7.52 46.87 -7.56 43.27 C-7.56 42.16 -7.56 41.05 -7.56 39.91 C-7.67 31.47 -8.75 24.25 -15 18 C-18.41 15.69 -21.07 15.96 -25 16.56 C-29.67 17.67 -32.17 18.97 -35 23 C-39.04 31.93 -39.15 41.43 -39.32 51.06 C-39.34 52.09 -39.36 53.13 -39.38 54.19 C-39.44 57.46 -39.5 60.73 -39.56 64 C-39.61 66.23 -39.65 68.46 -39.69 70.68 C-39.8 76.12 -39.9 81.56 -40 87 C-46.6 87 -53.2 87 -60 87 C-61.6 83.79 -61.13 80.31 -61.11 76.79 C-61.11 75.94 -61.11 75.09 -61.11 74.21 C-61.11 71.4 -61.11 68.59 -61.1 65.77 C-61.1 63.83 -61.09 61.88 -61.09 59.93 C-61.09 54.8 -61.08 49.67 -61.07 44.53 C-61.06 39.3 -61.05 34.06 -61.05 28.83 C-61.04 18.55 -61.02 8.28 -61 -2 C-58.04 -2.03 -55.08 -2.05 -52.12 -2.06 C-51.28 -2.07 -50.44 -2.08 -49.57 -2.09 C-48.77 -2.09 -47.96 -2.09 -47.13 -2.1 C-46.02 -2.11 -46.02 -2.11 -44.88 -2.11 C-43 -2 -43 -2 -41 -1 C-40.28 0.64 -39.61 2.31 -39 4 C-38.42 3.59 -37.84 3.18 -37.24 2.76 C-36.46 2.22 -35.68 1.68 -34.88 1.12 C-34.11 0.59 -33.34 0.06 -32.55 -0.49 C-22.55 -6.4 -10.02 -5.4 0 0 Z " fill="#000002" transform="translate(234,606)"/>
<path d="M0 0 C7.67 4.69 12.52 12.87 15.17 21.35 C15.75 24.24 15.79 26.99 15.83 29.93 C15.86 31.86 15.86 31.86 15.89 33.82 C15.91 35.21 15.92 36.6 15.94 38 C15.96 39.43 15.98 40.85 16 42.28 C16.06 46.04 16.11 49.79 16.16 53.55 C16.21 57.38 16.26 61.22 16.32 65.05 C16.43 72.57 16.53 80.09 16.62 87.61 C13.33 87.66 10.04 87.7 6.75 87.73 C5.81 87.75 4.88 87.76 3.91 87.78 C3.01 87.79 2.12 87.79 1.2 87.8 C0.37 87.81 -0.46 87.82 -1.31 87.83 C-3.38 87.61 -3.38 87.61 -5.38 85.61 C-5.64 83.48 -5.64 83.48 -5.66 80.82 C-5.68 79.83 -5.69 78.83 -5.7 77.81 C-5.71 76.73 -5.71 75.65 -5.72 74.54 C-5.73 73.42 -5.75 72.31 -5.76 71.17 C-5.81 67.61 -5.84 64.04 -5.88 60.48 C-5.92 55.81 -5.97 51.14 -6.03 46.47 C-6.04 45.4 -6.04 44.34 -6.05 43.24 C-6.16 34.45 -6.91 25.22 -13.38 18.61 C-17.72 16.37 -21.95 16.15 -26.62 17.48 C-31.32 19.62 -33.35 23 -35.38 27.61 C-37.44 34.82 -37.71 42.06 -37.79 49.52 C-37.81 50.62 -37.83 51.71 -37.85 52.84 C-37.91 56.3 -37.95 59.77 -38 63.23 C-38.04 65.59 -38.08 67.96 -38.12 70.32 C-38.21 76.08 -38.3 81.84 -38.38 87.61 C-44.98 87.61 -51.58 87.61 -58.38 87.61 C-59.98 84.4 -59.5 80.91 -59.49 77.39 C-59.49 76.54 -59.49 75.69 -59.49 74.82 C-59.49 72.01 -59.48 69.19 -59.47 66.38 C-59.47 64.43 -59.47 62.48 -59.47 60.54 C-59.46 55.4 -59.45 50.27 -59.44 45.14 C-59.43 39.9 -59.43 34.67 -59.42 29.43 C-59.41 19.16 -59.4 8.88 -59.38 -1.39 C-53.43 -1.39 -47.5 -1.39 -41.38 -1.39 C-41.04 0.26 -40.72 1.91 -40.38 3.61 C-36.28 3.61 -35.6 3.4 -32.44 1.23 C-22.4 -5.59 -10.81 -5.13 0 0 Z " fill="#000002" transform="translate(895.375,605.39453125)"/>
<path d="M0 0 C7.91 5.72 13.81 13.15 17.25 22.31 C17.25 23.3 17.25 24.29 17.25 25.31 C13.69 25.46 10.13 25.55 6.56 25.62 C5.56 25.67 4.55 25.71 3.51 25.75 C-4.02 25.88 -4.02 25.88 -7.78 22.96 C-8.43 22.09 -9.08 21.21 -9.75 20.31 C-14.54 15.83 -18.43 13.37 -25.14 13.28 C-32.82 13.75 -38.81 15.88 -44.06 21.62 C-49.8 29 -51.4 37 -50.45 46.18 C-48.87 53.89 -45.13 57.92 -38.75 62.31 C-32.53 66.14 -25.86 66.11 -18.75 65.31 C-14.52 63.97 -11.74 61.36 -8.81 58.12 C-6.18 55.38 -4.07 54.53 -0.17 54.34 C1.03 54.32 1.03 54.32 2.25 54.31 C3.34 54.26 4.43 54.21 5.55 54.16 C14.73 53.9 14.73 53.9 17.14 55.83 C17.69 56.56 17.69 56.56 18.25 57.31 C12.39 70.2 4.42 78.91 -9.12 84.25 C-23.28 88.4 -36.82 86.93 -49.75 80.14 C-61.22 73.15 -68.49 63.65 -72.05 50.77 C-74.65 37.85 -72.07 25.77 -65.75 14.31 C-50.04 -6.38 -22.85 -13.95 0 0 Z " fill="#000002" transform="translate(991.75,608.6875)"/>
<path d="M0 0 C2.25 -0.02 4.5 -0.06 6.75 -0.11 C16.1 -0.21 26.37 -0.21 33.77 6.31 C38.96 11.92 41.14 16.61 40.99 24.28 C39.61 32.51 32.95 40.25 26.48 45.3 C19.39 49.95 13.73 53.43 5.17 53.41 C4.1 53.41 3.04 53.41 1.95 53.41 C0.24 53.4 0.24 53.4 -1.5 53.39 C-2.67 53.39 -3.84 53.39 -5.05 53.39 C-8.79 53.38 -12.53 53.37 -16.27 53.36 C-18.8 53.35 -21.34 53.35 -23.87 53.34 C-30.09 53.33 -36.3 53.32 -42.52 53.3 C-41.81 49.41 -40.77 46.56 -38.81 43.11 C-38.25 42.11 -37.69 41.11 -37.11 40.08 C-36.2 38.49 -36.2 38.49 -35.27 36.86 C-34.65 35.76 -34.02 34.67 -33.39 33.54 C-14.37 0.08 -14.37 0.08 0 0 Z " fill="#FCFDFF" transform="translate(809.515380859375,324.704833984375)"/>
<path d="M0 0 C3.31 -0.03 6.62 -0.05 9.94 -0.06 C10.88 -0.07 11.83 -0.08 12.8 -0.09 C14.15 -0.09 14.15 -0.09 15.53 -0.1 C16.78 -0.11 16.78 -0.11 18.05 -0.11 C20 0 20 0 21 1 C21.1 2.53 21.12 4.07 21.12 5.6 C21.12 6.59 21.12 7.59 21.12 8.61 C21.12 9.71 21.12 10.81 21.11 11.95 C21.11 13.1 21.11 14.25 21.11 15.43 C21.11 19.26 21.11 23.08 21.1 26.91 C21.1 29.55 21.09 32.2 21.09 34.84 C21.09 41.1 21.08 47.37 21.07 53.63 C21.06 60.75 21.06 67.88 21.05 75.01 C21.04 89.67 21.02 104.34 21 119 C17.71 119.09 14.42 119.14 11.12 119.19 C10.19 119.21 9.25 119.24 8.29 119.26 C7.39 119.27 6.49 119.28 5.57 119.29 C4.74 119.31 3.92 119.32 3.06 119.34 C2.38 119.23 1.7 119.12 1 119 C-1.13 115.8 -1.25 115 -1.25 111.32 C-1.25 110.36 -1.26 109.4 -1.26 108.41 C-1.25 107.36 -1.25 106.31 -1.24 105.23 C-1.24 104.12 -1.25 103.01 -1.25 101.87 C-1.25 98.19 -1.24 94.52 -1.23 90.84 C-1.23 88.29 -1.23 85.75 -1.23 83.2 C-1.23 77.86 -1.22 72.52 -1.21 67.18 C-1.19 61 -1.18 54.82 -1.19 48.64 C-1.19 42.7 -1.18 36.76 -1.17 30.82 C-1.17 28.29 -1.17 25.76 -1.17 23.23 C-1.16 19.7 -1.16 16.17 -1.15 12.64 C-1.15 11.59 -1.15 10.54 -1.15 9.45 C-1.14 8.49 -1.14 7.53 -1.13 6.55 C-1.13 5.71 -1.13 4.88 -1.13 4.02 C-1 2 -1 2 0 0 Z " fill="#000002" transform="translate(701,574)"/>
<path d="M0 0 C6.61 4.38 11.28 10.38 13.61 18.01 C14.96 24.94 14.17 31.68 11 38 C6.76 44.18 1.85 48.47 -5.38 50.75 C-14.05 51.58 -21.45 51.38 -28.68 46.01 C-35 40.57 -39.09 35.47 -40.27 27.06 C-40.66 19.25 -38.13 11.95 -33.27 5.82 C-24.06 -3.01 -11.53 -5.58 0 0 Z " fill="#FCFDFF" transform="translate(654,624)"/>
<path d="M0 0 C6.73 5.67 11.18 12.79 12.34 21.57 C12.64 29.42 10.72 35.2 5.75 41.25 C1.38 45.94 -3.44 49.38 -10 50 C-10.65 50.06 -11.29 50.13 -11.96 50.19 C-20.91 50.68 -27.63 47.48 -34.44 41.81 C-40.12 36.37 -41.58 31.76 -42.44 24.12 C-42.09 16.61 -39 8.97 -33.84 3.5 C-23.75 -4.71 -11.35 -6.68 0 0 Z " fill="#FCFDFF" transform="translate(557,625)"/>
<path d="M0 0 C2.85 2.37 4.92 4.95 7 8 C7.43 8.57 7.87 9.14 8.31 9.73 C12.49 16.29 11.96 24.57 11 32 C8.47 39.2 3.61 44.31 -3 48 C-10.44 50.98 -18.17 50.98 -25.66 48.16 C-32.61 44.7 -38.75 39.94 -41.45 32.48 C-43.33 24.04 -42.63 16.36 -38 9 C-28.99 -4.09 -14.04 -7.36 0 0 Z " fill="#FCFDFF" transform="translate(792,625)"/>
<path d="M0 0 C1.3 4.16 2.12 7.65 2 12 C-12.79 11.54 -27.56 10.9 -42.33 10.06 C-43.08 10.02 -43.83 9.98 -44.6 9.93 C-50.78 9.58 -56.96 9.22 -63.14 8.86 C-68.51 8.55 -73.89 8.24 -79.27 7.94 C-80.39 7.87 -80.39 7.87 -81.52 7.81 C-96.68 6.96 -111.83 6.42 -127 6 C-127 5.67 -127 5.34 -127 5 C-122.05 5 -117.1 5 -112 5 C-112 4.34 -112 3.68 -112 3 C-101.97 2.6 -91.95 2.21 -81.92 1.83 C-77.26 1.65 -72.6 1.47 -67.95 1.28 C-45.28 0.38 -22.68 -0.25 0 0 Z " fill="#000002" transform="translate(651,348)"/>
<path d="M0 0 C4.05 3.61 7.68 8.08 10 13 C10 14.32 10 15.64 10 17 C-5.18 17 -20.36 17 -36 17 C-37 14 -37 14 -36.25 12.17 C-31.61 4.81 -26.7 -0.11 -18.19 -2.53 C-11.8 -3.9 -5.75 -3.07 0 0 Z " fill="#FBFCFE" transform="translate(317,624)"/>
<path d="M0 0 C5.42 4.3 8.56 9.83 9.89 16.5 C-5.29 16.5 -20.47 16.5 -36.11 16.5 C-37.11 12.5 -37.11 12.5 -35.67 9.69 C-26.93 -2.11 -13.59 -7.51 0 0 Z " fill="#FCFDFF" transform="translate(1074.109375,624.5)"/>
<path d="M0 0 C1.63 -0.03 1.63 -0.03 3.29 -0.06 C4.21 -0.07 5.13 -0.09 6.08 -0.11 C8.24 0.11 8.24 0.11 10.24 2.11 C10.51 5.11 10.32 8.09 10.24 11.11 C-5.83 11.54 -21.85 10.31 -37.88 9.31 C-44.53 8.89 -51.19 8.48 -57.85 8.08 C-58.56 8.04 -59.28 7.99 -60.02 7.95 C-73.92 7.1 -87.83 6.53 -101.76 6.11 C-101.76 5.78 -101.76 5.45 -101.76 5.11 C-90.35 3.32 -79.09 2.63 -67.56 2.25 C-65.75 2.19 -63.94 2.13 -62.13 2.06 C-58.36 1.93 -54.6 1.8 -50.83 1.67 C-46.03 1.51 -41.23 1.35 -36.44 1.18 C-31.81 1.01 -27.19 0.85 -22.56 0.69 C-21.7 0.66 -20.83 0.63 -19.94 0.6 C-13.3 0.37 -6.65 0.19 0 0 Z " fill="#000002" transform="translate(641.7621154785156,324.89385986328125)"/>
<path d="M0 0 C1.2 -0 2.4 -0 3.64 -0 C11.36 0.05 11.36 0.05 12.5 1.19 C12.64 3.86 12.54 6.51 12.5 9.19 C0.34 9.47 -11.74 8.69 -23.87 7.96 C-41.89 6.89 -59.9 5.85 -77.95 5.57 C-79.07 5.54 -80.18 5.52 -81.32 5.5 C-82.26 5.48 -83.2 5.47 -84.17 5.46 C-86.5 5.19 -86.5 5.19 -89.5 3.19 C-87.85 2.86 -86.2 2.53 -84.5 2.19 C-84.5 2.85 -84.5 3.51 -84.5 4.19 C-81.53 4.19 -78.56 4.19 -75.5 4.19 C-75.5 3.53 -75.5 2.87 -75.5 2.19 C-18.72 -0.01 -18.72 -0.01 0 0 Z " fill="#020204" transform="translate(638.5,303.8125)"/>
<path d="M0 0 C-1.06 3.4 -2.01 6.01 -4 9 C-6.86 9.14 -9.47 9.09 -12.31 8.89 C-13.15 8.84 -14 8.8 -14.86 8.75 C-17.58 8.6 -20.29 8.42 -23 8.25 C-24.77 8.15 -26.53 8.05 -28.3 7.95 C-33.53 7.64 -38.77 7.32 -44 7 C-53.09 6.44 -62.17 5.95 -71.27 5.75 C-72.03 5.74 -72.78 5.72 -73.56 5.7 C-76.62 5.64 -79.67 5.57 -82.73 5.52 C-85.02 5.48 -87.3 5.43 -89.59 5.38 C-90.27 5.37 -90.96 5.36 -91.67 5.35 C-95.27 5.26 -97.93 4.95 -101 3 C-98.22 1.61 -96.08 1.82 -93 2 C-90.62 3 -90.62 3 -89 4 C-89 3.34 -89 2.68 -89 2 C-78.69 1.61 -68.38 1.22 -58.07 0.83 C-53.28 0.65 -48.5 0.46 -43.71 0.28 C-39.08 0.11 -34.46 -0.07 -29.84 -0.24 C-28.08 -0.31 -26.32 -0.38 -24.56 -0.44 C-22.08 -0.54 -19.61 -0.63 -17.14 -0.72 C-16.42 -0.75 -15.69 -0.78 -14.95 -0.81 C-2.54 -1.27 -2.54 -1.27 0 0 Z " fill="#040406" transform="translate(533,507)"/>
<path d="M0 0 C0.88 2.87 1.08 3.78 0.06 6.72 C-2 9 -2 9 -5.44 9.54 C-6.93 9.52 -8.41 9.48 -9.9 9.41 C-10.72 9.39 -11.55 9.37 -12.4 9.35 C-15.27 9.26 -18.13 9.14 -21 9 C-22.07 8.95 -23.14 8.9 -24.24 8.85 C-32.7 8.47 -41.16 7.99 -49.62 7.5 C-72.3 6.17 -72.3 6.17 -95 6 C-95 5.01 -95 4.02 -95 3 C-83.94 2.61 -72.88 2.22 -61.83 1.83 C-56.69 1.65 -51.56 1.46 -46.42 1.28 C-41.46 1.11 -36.5 0.93 -31.54 0.76 C-29.65 0.69 -27.77 0.62 -25.88 0.56 C-23.22 0.46 -20.57 0.37 -17.92 0.28 C-17.14 0.25 -16.37 0.22 -15.58 0.19 C-10.38 0.01 -5.2 -0.02 0 0 Z " fill="#010103" transform="translate(557,461)"/>
<path d="M0 0 C1.53 -0.02 1.53 -0.02 3.08 -0.04 C4.01 -0.04 4.94 -0.04 5.9 -0.04 C7.11 -0.05 7.11 -0.05 8.36 -0.06 C10.33 0.18 10.33 0.18 12.33 2.18 C11.01 4.49 9.69 6.8 8.33 9.18 C-7.23 8.76 -22.76 8.17 -38.29 7.18 C-56.07 6.06 -73.86 5.57 -91.67 5.18 C-91.67 4.85 -91.67 4.52 -91.67 4.18 C-90.43 4.12 -89.19 4.06 -87.91 4 C-86.26 3.92 -84.62 3.83 -82.98 3.75 C-81.76 3.69 -81.76 3.69 -80.51 3.63 C-79.31 3.56 -79.31 3.56 -78.09 3.5 C-77.37 3.46 -76.64 3.43 -75.89 3.39 C-73.64 3.23 -73.64 3.23 -71.36 2.69 C-68.68 2.19 -66.16 1.99 -63.43 1.89 C-62.41 1.85 -61.39 1.81 -60.33 1.77 C-59.23 1.73 -58.13 1.69 -56.99 1.65 C-55.26 1.58 -55.26 1.58 -53.49 1.52 C-51.03 1.43 -48.57 1.34 -46.11 1.25 C-42.43 1.12 -38.76 0.99 -35.08 0.85 C-23.39 0.42 -11.7 0.08 0 0 Z " fill="#020204" transform="translate(533.66796875,483.81640625)"/>
<path d="M0 0 C-1.88 5.75 -1.88 5.75 -3 8 C-17.77 8.27 -32.45 7.42 -47.19 6.56 C-51.93 6.29 -56.67 6.02 -61.42 5.75 C-63.13 5.66 -63.13 5.66 -64.88 5.56 C-75.59 4.95 -86.29 4.46 -97 4 C-97 3.67 -97 3.34 -97 3 C-80.92 1.39 -64.88 0.51 -48.74 -0.01 C-44.98 -0.13 -41.22 -0.26 -37.46 -0.39 C-3.12 -1.56 -3.12 -1.56 0 0 Z " fill="#000002" transform="translate(520,530)"/>
<path d="M0 0 C1.48 2.96 1.06 5.74 1 9 C-12.23 9.28 -25.36 8.41 -38.56 7.56 C-42.86 7.29 -47.15 7.02 -51.44 6.75 C-52.48 6.69 -53.53 6.62 -54.6 6.56 C-65.06 5.91 -75.53 5.44 -86 5 C-83.08 3.34 -80.89 2.73 -77.54 2.61 C-76.66 2.57 -75.78 2.53 -74.87 2.49 C-73.44 2.45 -73.44 2.45 -71.98 2.4 C-70.98 2.36 -69.98 2.32 -68.95 2.28 C-65.7 2.16 -62.44 2.05 -59.19 1.94 C-56.96 1.86 -54.73 1.77 -52.51 1.69 C-46 1.45 -39.5 1.22 -33 1 C-31.23 0.94 -29.46 0.88 -27.69 0.82 C-4.05 0 -4.05 0 0 0 Z " fill="#010103" transform="translate(649,281)"/>
<path d="M0 0 C1.13 0 2.27 0.01 3.43 0.01 C4.71 0.01 5.99 0.01 7.31 0.01 C8.72 0.02 10.12 0.03 11.53 0.05 C12.96 0.05 14.39 0.05 15.82 0.05 C19.59 0.06 23.36 0.08 27.14 0.1 C30.98 0.12 34.83 0.13 38.68 0.14 C46.23 0.16 53.78 0.2 61.33 0.24 C61.82 2.72 61.82 2.72 62.33 5.24 C61.7 5.22 61.08 5.19 60.44 5.16 C57.38 5.04 54.32 4.92 51.27 4.8 C49.54 4.74 49.54 4.74 47.79 4.67 C41.21 4.41 34.63 4.18 28.05 3.99 C27.37 3.97 26.68 3.95 25.97 3.92 C22.62 3.82 19.27 3.73 15.92 3.63 C9.01 3.43 2.19 3.06 -4.67 2.24 C-2.67 0.24 -2.67 0.24 0 0 Z " fill="#010103" transform="translate(586.6701965332031,262.7594909667969)"/>
<path d="M0 0 C-0.33 1.32 -0.66 2.64 -1 4 C-1.93 3.99 -2.85 3.99 -3.81 3.98 C-24.93 3.88 -46.02 4.07 -67.14 4.64 C-77.76 4.93 -88.37 5.06 -99 5 C-99 4.67 -99 4.34 -99 4 C-94.71 4 -90.42 4 -86 4 C-86 3.34 -86 2.68 -86 2 C-71.15 2.5 -71.15 2.5 -56 3 C-56 2.34 -56 1.68 -56 1 C-37.32 0.23 -18.7 -0.15 0 0 Z " fill="#0C0C0E" transform="translate(507,552)"/>
</svg>
