<?xml version="1.0" encoding="UTF-8"?>
<!-- Generator: visioncortex VTracer 0.6.3 -->
<svg version="1.1" xmlns="http://www.w3.org/2000/svg" width="1280" height="853">
<path d="M0 0 C422.4 0 844.8 0 1280 0 C1280 281.49 1280 562.98 1280 853 C857.6 853 435.2 853 0 853 C0 571.51 0 290.02 0 0 Z " fill="#FAFCFC" transform="translate(0,0)"/>
<path d="M0 0 C1.17 -0.01 2.35 -0.01 3.56 -0.02 C4.86 -0.01 6.16 -0.01 7.51 -0 C8.9 -0 10.29 -0.01 11.69 -0.01 C15.55 -0.02 19.4 -0.01 23.26 -0.01 C27.45 -0 31.64 -0.01 35.83 -0.01 C43.17 -0.02 50.52 -0.02 57.87 -0.01 C68.8 -0.01 79.73 -0.01 90.65 -0.02 C110.17 -0.03 129.68 -0.03 149.19 -0.02 C166.26 -0.02 183.34 -0.01 200.41 -0.02 C202.11 -0.02 202.11 -0.02 203.84 -0.02 C208.43 -0.02 213.02 -0.02 217.61 -0.02 C260.7 -0.03 303.8 -0.02 346.89 -0.01 C385.21 0 423.53 -0 461.85 -0.01 C504.86 -0.02 547.87 -0.03 590.88 -0.02 C595.47 -0.02 600.05 -0.02 604.63 -0.02 C606.32 -0.02 606.32 -0.02 608.05 -0.02 C625.12 -0.01 642.18 -0.02 659.25 -0.02 C678.65 -0.03 698.05 -0.03 717.45 -0.02 C728.32 -0.01 739.19 -0.01 750.05 -0.02 C757.3 -0.02 764.55 -0.02 771.8 -0.01 C775.93 -0 780.07 -0 784.21 -0.01 C787.96 -0.02 791.72 -0.01 795.48 -0 C797.48 -0 799.48 -0.01 801.49 -0.02 C803.25 -0.01 803.25 -0.01 805.04 0 C806.57 0 806.57 0 808.13 0 C810.52 0.25 810.52 0.25 812.52 2.25 C812.77 4.22 812.77 4.22 812.78 6.68 C812.78 7.62 812.79 8.56 812.79 9.53 C812.79 10.56 812.79 11.6 812.78 12.67 C812.79 13.77 812.79 14.87 812.79 16 C812.8 19.7 812.8 23.4 812.8 27.1 C812.8 29.75 812.81 32.39 812.81 35.03 C812.82 41.49 812.83 47.94 812.82 54.4 C812.82 59.65 812.82 64.91 812.83 70.16 C812.83 70.91 812.83 71.65 812.83 72.42 C812.83 73.94 812.83 75.46 812.83 76.98 C812.84 91.23 812.84 105.49 812.84 119.75 C812.83 132.76 812.84 145.78 812.86 158.79 C812.88 172.17 812.89 185.54 812.89 198.92 C812.88 206.42 812.89 213.93 812.9 221.43 C812.91 227.83 812.91 234.23 812.9 240.63 C812.9 243.88 812.9 247.14 812.91 250.4 C812.98 275.81 811.12 297.43 792.58 316.63 C773 335.21 750.02 335.56 724.47 335.47 C721.95 335.47 719.43 335.47 716.91 335.48 C711.5 335.48 706.09 335.47 700.69 335.46 C692.12 335.45 683.55 335.46 674.98 335.47 C672.04 335.47 669.1 335.48 666.16 335.48 C665.43 335.48 664.69 335.48 663.93 335.48 C655.59 335.49 647.25 335.5 638.91 335.5 C637.77 335.5 637.77 335.5 636.6 335.5 C624.27 335.5 611.95 335.49 599.62 335.48 C586.92 335.46 574.22 335.47 561.51 335.5 C553.7 335.51 545.9 335.51 538.09 335.49 C532.09 335.47 526.09 335.48 520.09 335.5 C517.64 335.51 515.2 335.5 512.76 335.49 C491.54 335.35 474.36 339.57 455.52 349.25 C454.36 349.82 453.2 350.39 452 350.98 C438.93 357.54 426.65 365.83 414.99 374.63 C414.3 375.15 413.61 375.67 412.91 376.2 C411.64 377.17 410.38 378.15 409.14 379.14 C405.02 382.31 405.02 382.31 402.57 382.02 C400.32 381.18 398.71 380.14 396.79 378.7 C396.08 378.17 395.37 377.64 394.63 377.1 C393.5 376.25 393.5 376.25 392.33 375.38 C367.21 356.91 337.37 336.09 305.1 336.11 C304.05 336.1 303 336.1 301.92 336.1 C298.41 336.08 294.89 336.08 291.38 336.08 C288.86 336.07 286.34 336.06 283.82 336.06 C278.39 336.04 272.96 336.03 267.53 336.02 C259.67 336.01 251.81 335.99 243.94 335.96 C231.17 335.92 218.39 335.89 205.61 335.86 C204.84 335.86 204.08 335.85 203.29 335.85 C192.46 335.83 181.62 335.8 170.79 335.78 C170.03 335.78 169.26 335.78 168.48 335.77 C167.72 335.77 166.96 335.77 166.17 335.77 C153.45 335.74 140.73 335.71 128.01 335.67 C120.17 335.64 112.33 335.62 104.5 335.61 C98.48 335.61 92.46 335.59 86.45 335.57 C83.99 335.56 81.53 335.55 79.07 335.55 C52.73 335.54 30.62 333.13 10.52 314.25 C-2.79 300.03 -7.64 282.35 -7.61 263.22 C-7.61 262.1 -7.62 260.99 -7.62 259.84 C-7.63 256.1 -7.62 252.37 -7.62 248.63 C-7.63 245.96 -7.63 243.28 -7.63 240.6 C-7.64 234.08 -7.64 227.57 -7.65 221.05 C-7.65 215.75 -7.65 210.46 -7.65 205.17 C-7.66 190.16 -7.66 175.15 -7.66 160.15 C-7.66 159.34 -7.66 158.53 -7.66 157.7 C-7.66 156.89 -7.66 156.08 -7.66 155.24 C-7.66 142.11 -7.67 128.97 -7.69 115.83 C-7.7 102.34 -7.71 88.86 -7.71 75.37 C-7.71 67.8 -7.71 60.23 -7.72 52.65 C-7.73 46.21 -7.73 39.77 -7.72 33.32 C-7.72 30.03 -7.72 26.74 -7.73 23.45 C-7.74 19.9 -7.73 16.34 -7.73 12.78 C-7.73 11.73 -7.74 10.68 -7.74 9.6 C-7.74 8.65 -7.73 7.7 -7.73 6.73 C-7.73 5.91 -7.73 5.08 -7.73 4.24 C-7.14 -0.43 -3.88 0 0 0 Z " fill="#000102" transform="translate(238.4783115386963,306.7493016719818)"/>
<path d="M0 0 C0.55 0.78 0.55 0.78 1.12 1.57 C-3.91 13.09 -9.7 21.96 -18.88 30.57 C-19.69 31.34 -20.51 32.11 -21.35 32.91 C-27.68 38.41 -38.2 45.57 -46.88 45.57 C-46.99 46.13 -47.09 46.69 -47.2 47.27 C-50.06 62.6 -53.17 77.87 -56.38 93.13 C-59 105.55 -61.6 117.98 -64.06 130.43 C-65.25 136.46 -66.48 142.48 -67.74 148.49 C-68.06 150.06 -68.39 151.63 -68.72 153.2 C-69.2 155.52 -69.69 157.85 -70.18 160.17 C-70.63 162.32 -71.08 164.47 -71.53 166.62 C-71.79 167.87 -72.05 169.11 -72.32 170.39 C-73 173.69 -73 173.69 -72.88 177.57 C-66.8 177.08 -60.95 176.27 -55.01 174.87 C-52.88 174.57 -52.88 174.57 -49.88 175.57 C-51.27 177.13 -52.67 178.7 -54.07 180.26 C-54.85 181.13 -55.62 182 -56.42 182.89 C-71.72 199.56 -93.29 214.17 -116.49 215.75 C-143.66 216.34 -164.54 211.12 -184.92 191.98 C-198.83 178.47 -205.73 161.66 -206.26 142.26 C-206.36 120.89 -195.95 102.96 -181.51 87.88 C-174.78 81.37 -167.23 76.62 -159.07 72.13 C-158.43 71.78 -157.8 71.42 -157.15 71.06 C-153.58 69.16 -150.93 68.13 -146.88 68.57 C-148.2 71.21 -149.52 73.85 -150.88 76.57 C-142.4 76.03 -134.19 74.86 -125.85 73.25 C-123.41 72.79 -120.96 72.34 -118.52 71.88 C-114.71 71.16 -110.9 70.44 -107.1 69.71 C-103.39 69.01 -99.69 68.32 -95.98 67.62 C-94.84 67.4 -93.7 67.18 -92.53 66.96 C-91.46 66.76 -90.4 66.56 -89.31 66.36 C-87.91 66.09 -87.91 66.09 -86.49 65.82 C-83.72 65.55 -81.57 65.89 -78.88 66.57 C-80.22 76.31 -82.1 85.88 -84.18 95.48 C-84.69 97.87 -85.19 100.26 -85.7 102.65 C-91.47 129.7 -101.13 147.4 -124.93 162.91 C-128.44 165.14 -131.96 167.33 -135.51 169.5 C-137.66 170.82 -139.78 172.17 -141.88 173.57 C-139.55 174.7 -137.22 175.83 -134.88 176.95 C-134.23 177.26 -133.58 177.58 -132.92 177.91 C-123.29 182.48 -114.95 182.83 -104.38 182.7 C-103.08 182.69 -101.78 182.68 -100.44 182.67 C-97.26 182.64 -94.07 182.61 -90.88 182.57 C-86.73 165.2 -82.79 147.78 -79.01 130.32 C-78.8 129.35 -78.59 128.38 -78.37 127.38 C-76.02 116.54 -73.69 105.69 -71.38 94.84 C-71.08 93.43 -71.08 93.43 -70.77 91.98 C-69.82 87.51 -68.87 83.04 -67.92 78.57 C-65.79 68.51 -63.45 58.53 -60.88 48.57 C-62.38 48.65 -62.38 48.65 -63.9 48.74 C-64.89 48.79 -64.89 48.79 -65.91 48.85 C-66.64 48.89 -67.37 48.93 -68.12 48.97 C-72.92 49.24 -77.71 49.5 -82.5 49.77 C-83.28 49.81 -84.06 49.86 -84.87 49.9 C-86.47 49.99 -88.06 50.08 -89.66 50.17 C-93.62 50.39 -97.58 50.61 -101.53 50.83 C-103.05 50.92 -104.56 51 -106.08 51.09 C-106.82 51.13 -107.56 51.17 -108.33 51.21 C-111.88 51.41 -115.43 51.6 -118.99 51.77 C-142.67 52.92 -163.32 56.31 -185.82 63.99 C-187.88 64.57 -187.88 64.57 -190.88 64.57 C-190.19 54.44 -185.55 45.09 -178.88 37.57 C-178.23 36.83 -177.59 36.09 -176.92 35.33 C-155.73 12.6 -120.56 12.15 -91.63 10.57 C-68.9 9.31 -46.79 6.97 -24.35 3.11 C-23.63 2.98 -22.92 2.86 -22.18 2.73 C-18.68 2.12 -15.23 1.44 -11.78 0.6 C-10.52 0.3 -9.27 0 -7.97 -0.31 C-6.87 -0.59 -5.76 -0.88 -4.62 -1.17 C-1.88 -1.43 -1.88 -1.43 0 0 Z " fill="#FAFCFC" transform="translate(540.880859375,360.429931640625)"/>
<path d="M0 0 C1.58 1.36 3.14 2.73 4.69 4.12 C5.3 4.65 5.91 5.17 6.55 5.7 C18.11 16.21 26.56 33.15 27.91 48.67 C28.82 69.55 24.83 87.36 10.96 103.72 C-1.99 117.42 -17.89 125.42 -36.89 126.29 C-57.12 126.86 -74.91 120.36 -90.31 107.12 C-103.99 93.97 -111.12 76.19 -111.75 57.31 C-111.22 38.31 -104.15 20.3 -90.31 7.12 C-89.68 6.49 -89.04 5.86 -88.39 5.21 C-65.28 -16.51 -25.4 -19.78 0 0 Z " fill="#000102" transform="translate(338.3125,175.875)"/>
<path d="M0 0 C0.87 -0.01 1.75 -0.01 2.65 -0.02 C4.07 -0.01 4.07 -0.01 5.52 -0.01 C6.48 -0.01 7.45 -0.01 8.45 -0.01 C10.5 -0.01 12.55 -0.01 14.61 -0 C17.75 0.01 20.9 -0 24.05 -0.01 C26.04 -0.01 28.03 -0.01 30.02 -0.01 C30.96 -0.01 31.91 -0.01 32.88 -0.02 C33.76 -0.01 34.63 -0.01 35.53 0 C36.69 0 36.69 0 37.87 0 C39.77 0.26 39.77 0.26 41.77 2.26 C42.04 5.19 42.04 5.19 42.08 9 C42.09 9.7 42.1 10.39 42.11 11.1 C42.15 13.4 42.16 15.69 42.18 17.99 C42.2 19.57 42.22 21.16 42.24 22.75 C42.29 26.94 42.33 31.12 42.37 35.31 C42.41 39.58 42.46 43.85 42.51 48.12 C42.6 56.5 42.69 64.88 42.77 73.26 C43.43 73.26 44.09 73.26 44.77 73.26 C46.48 71.3 48.15 69.3 49.77 67.26 C49.11 67.26 48.45 67.26 47.77 67.26 C46.78 64.29 46.64 62.32 46.63 59.22 C46.63 58.25 46.63 57.28 46.63 56.27 C46.63 55.26 46.64 54.24 46.64 53.2 C46.63 51.67 46.63 51.67 46.63 50.11 C46.63 49.14 46.63 48.16 46.63 47.16 C46.63 46.27 46.64 45.38 46.64 44.46 C46.77 42.26 46.77 42.26 47.77 40.26 C55.01 40.23 62.26 40.22 69.5 40.2 C71.97 40.2 74.43 40.19 76.9 40.18 C80.44 40.17 83.97 40.17 87.51 40.16 C88.62 40.16 89.73 40.15 90.88 40.15 C92.41 40.15 92.41 40.15 93.97 40.15 C94.87 40.14 95.78 40.14 96.71 40.14 C98.77 40.26 98.77 40.26 99.77 41.26 C100.1 45.21 100.09 49.17 100.14 53.13 C100.2 54.81 100.2 54.81 100.25 56.51 C100.27 57.58 100.28 58.65 100.29 59.75 C100.32 61.23 100.32 61.23 100.35 62.73 C99.77 65.26 99.77 65.26 97.41 67 C96.54 67.41 95.66 67.83 94.77 68.26 C89.54 71.4 84.36 75.27 80.77 80.26 C81.42 85.52 85.29 89.55 88.33 93.7 C89.22 94.97 89.22 94.97 90.13 96.26 C93.69 101.13 96.91 104.49 102.28 107.31 C102.77 107.62 103.26 107.93 103.77 108.26 C103.77 108.92 103.77 109.58 103.77 110.26 C104.43 110.26 105.09 110.26 105.77 110.26 C105.77 117.19 105.77 124.12 105.77 131.26 C100.44 131.37 95.13 131.47 89.8 131.53 C88 131.56 86.19 131.59 84.38 131.64 C81.77 131.7 79.17 131.73 76.57 131.75 C75.76 131.77 74.96 131.8 74.13 131.83 C69.91 131.83 68.29 131.69 64.91 128.94 C64.2 128.05 63.49 127.17 62.77 126.26 C62.21 125.68 61.66 125.1 61.1 124.5 C60.62 123.98 60.14 123.46 59.65 122.93 C58.94 122.15 58.94 122.15 58.21 121.36 C57.63 120.73 57.05 120.1 56.45 119.45 C54.58 117.4 52.7 115.36 50.77 113.26 C50.44 119.2 50.11 125.14 49.77 131.26 C42.09 131.28 34.42 131.3 26.75 131.31 C24.14 131.32 21.52 131.33 18.91 131.33 C15.17 131.35 11.42 131.35 7.68 131.36 C6.5 131.36 5.32 131.37 4.11 131.37 C3.03 131.37 1.95 131.37 0.84 131.37 C-0.12 131.37 -1.08 131.38 -2.06 131.38 C-4.23 131.26 -4.23 131.26 -5.23 130.26 C-5.57 126.98 -5.56 123.68 -5.61 120.38 C-5.65 119.46 -5.68 118.54 -5.72 117.58 C-5.76 115.04 -5.74 112.75 -5.23 110.26 C-2.77 108.19 -2.77 108.19 -0.23 107.26 C1.71 105.32 0.94 101.62 0.96 98.97 C0.97 98.21 0.97 97.45 0.98 96.66 C1.01 94.13 1.02 91.59 1.04 89.06 C1.05 87.76 1.05 87.76 1.06 86.44 C1.08 81.86 1.1 77.28 1.12 72.71 C1.13 67.98 1.18 63.25 1.23 58.52 C1.26 54.88 1.27 51.25 1.28 47.62 C1.29 45.87 1.3 44.13 1.32 42.39 C1.36 39.95 1.36 37.5 1.35 35.06 C1.37 34.34 1.38 33.62 1.4 32.88 C1.35 29 0.93 27.45 -1.65 24.46 C-2.5 23.73 -3.35 23.01 -4.23 22.26 C-6.81 18.4 -6.53 15.17 -6.48 10.7 C-6.49 9.92 -6.5 9.14 -6.51 8.33 C-6.49 2.52 -6.11 0.01 0 0 Z " fill="#000102" transform="translate(833.234375,161.7412109375)"/>
<path d="M0 0 C7.91 1.82 14.48 2.47 22.51 1.47 C25.31 1.16 27.2 0.95 29.72 2.32 C31.19 5.18 30.38 7.13 29.7 10.23 C28.99 12.1 28.21 13.95 27.39 15.78 C24.65 22.18 22.59 28.65 20.7 35.35 C20.36 36.56 20.02 37.76 19.67 39.01 C15.24 55.03 12.1 71.26 10.36 87.79 C8.95 100.64 3.61 112.36 -6.3 120.97 C-18.27 130.17 -33.43 133.19 -48.3 132.23 C-56.81 131.04 -64.87 128.11 -71.3 122.23 C-71.3 118.23 -71.3 118.23 -69.53 116.25 C-68.3 115.22 -68.3 115.22 -67.05 114.16 C-66.15 113.39 -65.25 112.62 -64.32 111.82 C-63.32 110.96 -62.32 110.11 -61.3 109.23 C-59.07 107.22 -56.87 105.19 -54.67 103.16 C-53.64 102.21 -52.6 101.27 -51.57 100.32 C-50.82 99.63 -50.07 98.94 -49.3 98.23 C-50.57 94.59 -52.03 92.2 -54.61 89.35 C-62.5 79.44 -65.05 65.81 -64.07 53.39 C-61.86 38.34 -53.73 24.21 -41.64 14.96 C-29.02 5.61 -16.17 -3.79 0 0 Z " fill="#FBFDFD" transform="translate(658.296875,432.7734375)"/>
<path d="M0 0 C0.97 -0.01 1.95 -0.02 2.95 -0.04 C16.05 -0.06 30.37 2.85 40.78 11.31 C45.91 16.71 50.68 23.59 50.69 31.21 C50.69 32.02 50.7 32.82 50.7 33.65 C50.7 34.52 50.7 35.38 50.7 36.27 C50.72 38.11 50.74 39.95 50.76 41.78 C50.79 44.67 50.81 47.57 50.81 50.46 C50.82 53.25 50.85 56.04 50.89 58.84 C50.88 59.7 50.88 60.56 50.87 61.45 C50.96 65.74 51.08 67.59 53.85 71.02 C55.5 72.34 57.17 73.63 58.86 74.89 C61.61 78.6 60.98 82.46 60.81 86.94 C60.79 87.83 60.78 88.71 60.76 89.63 C60.71 91.82 60.65 94 60.56 96.19 C54.57 96.26 48.57 96.32 42.58 96.35 C40.54 96.37 38.5 96.39 36.46 96.41 C33.53 96.45 30.59 96.47 27.65 96.48 C26.75 96.5 25.84 96.51 24.91 96.53 C19.3 96.53 15.61 95.63 10.56 93.19 C7.2 93.46 4.34 94.6 1.19 95.75 C-10.01 99.14 -21.95 98.12 -32.25 92.71 C-40.02 88.09 -47.2 82.37 -50 73.45 C-51.67 64.83 -50.93 56.78 -46.44 49.19 C-39.14 39.04 -30.61 34.43 -18.59 31.68 C-10.9 30.47 -3.08 30.77 4.56 32.19 C3.9 30.54 3.24 28.89 2.56 27.19 C-7.7 26.84 -17.1 27.35 -27.14 29.53 C-30.44 30.19 -30.44 30.19 -34.44 30.19 C-34.44 29.53 -34.44 28.87 -34.44 28.19 C-35.1 28.19 -35.76 28.19 -36.44 28.19 C-37.28 25.79 -38.11 23.4 -38.94 21 C-39.18 20.33 -39.41 19.65 -39.66 18.96 C-42.17 11.61 -42.17 11.61 -41.44 8.19 C-37.74 5.11 -33.29 4.15 -28.69 3.06 C-28.02 2.89 -27.36 2.72 -26.67 2.55 C-17.82 0.39 -9.08 0.01 0 0 Z " fill="#000102" transform="translate(990.4375,196.8125)"/>
<path d="M0 0 C4.31 3.52 7.62 7.74 8.65 13.31 C8.83 16.13 8.85 18.91 8.82 21.73 C8.84 23.27 8.84 23.27 8.86 24.83 C8.89 28.08 8.88 31.32 8.88 34.56 C8.88 37.82 8.9 41.08 8.93 44.34 C8.94 46.36 8.95 48.38 8.94 50.4 C8.94 51.31 8.94 52.23 8.95 53.17 C8.95 53.97 8.94 54.77 8.94 55.6 C9.22 58.11 9.84 59.68 11.19 61.81 C12.05 62.34 12.91 62.87 13.79 63.42 C16.57 66.19 16.55 66.82 16.68 70.58 C16.64 72.41 16.58 74.24 16.5 76.06 C16.48 77 16.45 77.93 16.43 78.9 C16.37 81.2 16.29 83.51 16.19 85.81 C9.94 85.84 3.69 85.86 -2.56 85.87 C-4.68 85.87 -6.81 85.88 -8.94 85.89 C-11.99 85.9 -15.04 85.91 -18.09 85.91 C-19.53 85.92 -19.53 85.92 -20.99 85.93 C-22.31 85.93 -22.31 85.93 -23.66 85.93 C-24.44 85.93 -25.22 85.93 -26.02 85.93 C-27.81 85.81 -27.81 85.81 -28.81 84.81 C-28.91 83.12 -28.95 81.41 -28.95 79.71 C-28.96 78.63 -28.97 77.54 -28.98 76.42 C-28.98 75.23 -28.98 74.05 -28.99 72.82 C-29.01 70.34 -29.04 67.85 -29.06 65.37 C-29.1 61.43 -29.13 57.5 -29.14 53.56 C-29.15 49.77 -29.19 45.99 -29.24 42.2 C-29.24 41.02 -29.23 39.84 -29.23 38.63 C-29.25 37.53 -29.27 36.43 -29.28 35.3 C-29.29 34.33 -29.29 33.37 -29.3 32.37 C-29.96 29.07 -31.17 27.85 -33.81 25.81 C-36.92 25.57 -36.92 25.57 -39.81 26.81 C-44.21 32.56 -43.33 38.94 -43.31 45.88 C-43.36 47.79 -43.36 47.79 -43.4 49.75 C-43.4 50.98 -43.4 52.21 -43.41 53.47 C-43.41 54.59 -43.42 55.71 -43.43 56.87 C-42.62 60.71 -40.95 61.61 -37.81 63.81 C-37.81 64.47 -37.81 65.13 -37.81 65.81 C-37.15 65.81 -36.49 65.81 -35.81 65.81 C-35.81 72.41 -35.81 79.01 -35.81 85.81 C-43.48 85.84 -51.16 85.86 -58.83 85.87 C-61.44 85.87 -64.05 85.88 -66.67 85.89 C-70.41 85.9 -74.16 85.91 -77.9 85.91 C-79.08 85.92 -80.25 85.92 -81.47 85.93 C-82.55 85.93 -83.63 85.93 -84.74 85.93 C-85.7 85.93 -86.66 85.93 -87.64 85.93 C-89.81 85.81 -89.81 85.81 -90.81 84.81 C-91.15 81.53 -91.14 78.23 -91.19 74.94 C-91.22 74.01 -91.26 73.09 -91.3 72.14 C-91.33 69.6 -91.32 67.3 -90.81 64.81 C-88.35 62.74 -88.35 62.74 -85.81 61.81 C-83.1 59.1 -84.49 49.89 -84.46 46.06 C-84.45 44.4 -84.42 42.74 -84.38 41.09 C-84.33 38.7 -84.3 36.31 -84.29 33.92 C-84.27 33.19 -84.24 32.45 -84.22 31.69 C-84.24 27.64 -84.64 26.01 -87.28 22.87 C-88.12 22.19 -88.95 21.51 -89.81 20.81 C-90.14 20.48 -90.47 20.15 -90.81 19.81 C-90.81 12.22 -90.81 4.63 -90.81 -3.19 C-75.63 -3.19 -60.45 -3.19 -44.81 -3.19 C-44.15 -1.21 -43.49 0.77 -42.81 2.81 C-41.76 2.2 -41.76 2.2 -40.69 1.57 C-27.61 -5.85 -13.43 -8.61 0 0 Z " fill="#000102" transform="translate(469.8125,207.1875)"/>
<path d="M0 0 C6.11 -0.02 12.21 -0.04 18.32 -0.05 C20.4 -0.06 22.47 -0.07 24.55 -0.08 C27.53 -0.09 30.52 -0.09 33.5 -0.1 C34.9 -0.11 34.9 -0.11 36.33 -0.11 C37.19 -0.11 38.05 -0.11 38.94 -0.11 C40.08 -0.12 40.08 -0.12 41.25 -0.12 C43 0 43 0 44 1 C44.14 2.74 44.21 4.48 44.25 6.22 C44.28 7.34 44.31 8.45 44.34 9.6 C44.37 10.81 44.4 12.03 44.43 13.28 C44.5 15.82 44.58 18.36 44.65 20.9 C44.77 24.92 44.88 28.95 44.97 32.98 C45.07 36.85 45.19 40.72 45.3 44.59 C45.33 45.8 45.35 47.01 45.38 48.26 C45.42 49.38 45.45 50.5 45.49 51.65 C45.52 52.64 45.54 53.62 45.57 54.64 C45.71 55.42 45.85 56.2 46 57 C49.69 59.46 51.63 59.39 56 59 C57.82 57.94 57.82 57.94 59 56 C59.46 53.08 59.46 53.08 59.4 49.76 C59.4 48.53 59.41 47.3 59.41 46.03 C59.4 44.74 59.39 43.45 59.38 42.12 C59.39 40.84 59.4 39.56 59.41 38.25 C59.41 37.01 59.4 35.78 59.4 34.51 C59.4 33.38 59.39 32.25 59.39 31.09 C58.95 27.6 58.11 25.79 56 23 C55.31 22.55 54.62 22.11 53.92 21.65 C52 20 52 20 51.55 17.82 C51.57 17 51.59 16.18 51.61 15.33 C51.62 14.44 51.64 13.55 51.65 12.63 C51.68 11.7 51.72 10.77 51.75 9.81 C51.77 8.87 51.79 7.93 51.8 6.96 C51.85 4.64 51.92 2.32 52 0 C58.68 -0.03 65.35 -0.04 72.03 -0.05 C74.3 -0.06 76.57 -0.07 78.84 -0.08 C82.1 -0.09 85.36 -0.09 88.62 -0.1 C89.64 -0.1 90.67 -0.11 91.72 -0.11 C92.66 -0.11 93.6 -0.11 94.57 -0.11 C95.4 -0.12 96.24 -0.12 97.1 -0.12 C99 0 99 0 100 1 C100.1 2.85 100.13 4.7 100.13 6.56 C100.13 7.75 100.13 8.93 100.14 10.16 C100.14 11.45 100.14 12.75 100.14 14.08 C100.15 16.1 100.17 18.12 100.18 20.14 C100.22 25.13 100.25 30.12 100.25 35.12 C100.25 38.59 100.27 42.06 100.31 45.53 C100.33 47.49 100.32 49.46 100.31 51.42 C100.33 53.22 100.33 53.22 100.36 55.05 C100.36 56.63 100.36 56.63 100.37 58.25 C101.21 61.93 102.96 62.89 106 65 C107.25 67.5 107.11 69.21 107.1 72.01 C107.09 73.49 107.09 73.49 107.09 75 C107.08 76.54 107.08 76.54 107.06 78.12 C107.06 79.17 107.05 80.21 107.05 81.28 C107.04 83.85 107.02 86.43 107 89 C100.5 89.1 94.01 89.17 87.51 89.22 C85.3 89.24 83.09 89.27 80.88 89.3 C77.7 89.35 74.53 89.37 71.36 89.39 C70.36 89.41 69.37 89.43 68.35 89.45 C67.43 89.45 66.51 89.45 65.56 89.45 C64.75 89.46 63.94 89.47 63.11 89.48 C61 89 61 89 59.21 86.97 C58.81 86.32 58.41 85.67 58 85 C57.39 85.35 56.78 85.7 56.16 86.06 C46.18 91.24 35.35 92.7 24.5 89.44 C17.48 86.67 11.25 83.03 8 76 C7.57 72.41 7.61 68.84 7.63 65.22 C7.61 63.08 7.59 60.93 7.58 58.79 C7.57 55.42 7.56 52.05 7.56 48.69 C7.56 45.43 7.53 42.17 7.5 38.91 C7.51 37.91 7.52 36.9 7.53 35.87 C7.47 29.93 6.98 26.51 3 22 C2.01 21.34 1.02 20.68 0 20 C-0.34 17.94 -0.34 17.94 -0.29 15.43 C-0.28 14.53 -0.27 13.64 -0.26 12.71 C-0.24 11.78 -0.21 10.84 -0.19 9.88 C-0.17 8.93 -0.16 7.99 -0.15 7.01 C-0.11 4.67 -0.06 2.34 0 0 Z " fill="#000102" transform="translate(709,204)"/>
<path d="M0 0 C2.53 0.54 2.53 0.54 5.39 -0.66 C8.28 -0.76 11.13 -0.8 14.02 -0.79 C14.8 -0.79 15.59 -0.79 16.41 -0.8 C22.26 -0.79 22.26 -0.79 23.39 0.34 C23.55 2.19 23.64 4.05 23.71 5.91 C23.75 7.03 23.79 8.16 23.83 9.31 C23.87 10.5 23.91 11.68 23.95 12.9 C24 14.09 24.04 15.28 24.08 16.5 C24.19 19.45 24.29 22.39 24.39 25.34 C21.39 25.48 18.39 25.57 15.39 25.65 C14.55 25.69 13.71 25.74 12.85 25.78 C7.13 25.89 3.72 24.9 -0.92 21.52 C-4.63 18.93 -8.23 19.1 -12.61 19.34 C-13.27 20 -13.93 20.66 -14.61 21.34 C-14.61 22.33 -14.61 23.32 -14.61 24.34 C-8.93 27.6 -3.34 29.83 3.02 31.4 C13.59 34.08 19.43 36.88 25.39 46.34 C29.13 52.8 29.42 60.06 28.39 67.34 C25.26 76.7 20.33 82.7 11.84 87.47 C6.8 89.94 2.09 89.87 -3.42 89.71 C-4.88 89.7 -4.88 89.7 -6.37 89.68 C-12.21 89.56 -17.81 89.14 -23.49 87.68 C-26.11 87.26 -28 87.81 -30.61 88.34 C-33.69 88.49 -36.77 88.48 -39.86 88.46 C-41.1 88.47 -41.1 88.47 -42.37 88.48 C-48.48 88.47 -48.48 88.47 -49.61 87.34 C-49.7 85.34 -49.72 83.34 -49.71 81.34 C-49.7 80.12 -49.7 78.91 -49.7 77.65 C-49.69 76.37 -49.68 75.1 -49.67 73.78 C-49.67 71.85 -49.67 71.85 -49.66 69.89 C-49.65 66.71 -49.63 63.52 -49.61 60.34 C-45.05 58.06 -39.51 58.56 -34.61 59.34 C-31.57 61.12 -29.03 63.18 -26.32 65.42 C-22.16 68.37 -17.69 69.42 -12.61 69.34 C-10.35 68.45 -10.35 68.45 -8.61 67.34 C-8.94 65.69 -9.27 64.04 -9.61 62.34 C-10.67 62.13 -11.74 61.92 -12.84 61.71 C-25.27 59.14 -40.03 55.5 -47.61 44.34 C-51.37 37.29 -51.77 28.86 -50.14 21.11 C-49.45 19.06 -48.62 17.25 -47.61 15.34 C-47.22 14.59 -46.83 13.84 -46.43 13.06 C-42.11 5.72 -36.23 1.91 -28.24 -0.8 C-18.96 -2.99 -9.24 -1.93 0 0 Z " fill="#000102" transform="translate(675.609375,204.66015625)"/>
<path d="M0 0 C4.93 4.29 9.4 10.07 9.97 16.75 C10.05 19.35 10.06 21.95 10.04 24.55 C10.05 25.89 10.05 25.89 10.06 27.25 C10.03 36.44 10.03 36.44 7.79 39.55 C5.17 40.65 2.96 41.32 0.22 41.93 C-0.58 42.12 -1.38 42.32 -2.21 42.52 C-5.2 43.23 -8.21 43.9 -11.21 44.55 C-11.86 44.7 -12.51 44.84 -13.18 44.98 C-25.17 47.6 -37.18 50.16 -49.21 52.55 C-50.35 58.22 -51.33 63.91 -49.03 69.37 C-46.15 72.84 -43.49 74.37 -39.01 75.02 C-30.02 75.1 -22.81 73.63 -14.38 70.65 C-11.21 69.55 -11.21 69.55 -9.21 69.55 C-11.53 77.78 -19.14 84.25 -26.21 88.55 C-35.32 93.22 -42.33 95.75 -52.46 95.87 C-53.7 95.91 -53.7 95.91 -54.95 95.96 C-62.27 96.03 -66.91 93.66 -72.96 89.8 C-79.97 82.8 -81.18 72.78 -81.46 63.24 C-80.9 44.92 -76.32 25.96 -63.46 12.24 C-47.99 -2.1 -19.46 -13.51 0 0 Z " fill="#FBFDFD" transform="translate(790.21484375,407.4453125)"/>
<path d="M0 0 C1.56 0 3.11 0.01 4.67 0.03 C5.89 0.04 5.89 0.04 7.15 0.04 C9.76 0.05 12.38 0.08 15 0.1 C16.77 0.11 18.55 0.12 20.32 0.13 C24.67 0.15 29.02 0.19 33.38 0.23 C34.55 2.57 34.5 4.01 34.52 6.62 C34.54 7.49 34.56 8.37 34.58 9.27 C34.61 11.1 34.63 12.94 34.63 14.78 C34.76 19.29 34.83 21.53 37.67 25.18 C40.23 27.18 40.23 27.18 42.5 28.55 C44.38 30.23 44.38 30.23 44.96 32.51 C45.06 35.37 45.12 38.23 45.13 41.1 C45.18 42.1 45.22 43.09 45.27 44.11 C45.3 47.04 45.21 49.42 44.38 52.23 C42.42 54.08 40.64 55.12 38.2 56.23 C36.02 57.15 36.02 57.15 35.38 60.23 C35.06 64.85 35.05 69.47 35 74.1 C34.96 75.38 34.93 76.66 34.89 77.98 C34.66 85.16 34.66 85.16 37.65 91.42 C39.25 92.48 40.87 93.53 42.52 94.52 C44.38 96.23 44.38 96.23 44.83 98.59 C44.81 99.49 44.79 100.4 44.77 101.33 C44.75 102.32 44.74 103.3 44.73 104.31 C44.69 105.34 44.66 106.36 44.63 107.41 C44.61 108.45 44.59 109.49 44.57 110.55 C44.52 113.11 44.46 115.67 44.38 118.23 C37.58 118.25 30.78 118.27 23.98 118.28 C21.66 118.29 19.35 118.29 17.04 118.3 C13.71 118.31 10.39 118.32 7.07 118.32 C5.51 118.33 5.51 118.33 3.92 118.34 C2.96 118.34 2 118.34 1.01 118.34 C0.16 118.34 -0.69 118.35 -1.56 118.35 C-3.62 118.23 -3.62 118.23 -5.62 117.23 C-5.63 116.51 -5.64 115.8 -5.64 115.06 C-5.7 108.31 -5.77 101.55 -5.86 94.8 C-5.9 91.33 -5.94 87.86 -5.97 84.38 C-6 80.39 -6.06 76.4 -6.11 72.4 C-6.12 71.16 -6.12 69.92 -6.13 68.64 C-6.15 67.48 -6.17 66.31 -6.19 65.12 C-6.2 64.1 -6.21 63.08 -6.22 62.03 C-6.69 58.75 -7.65 56.88 -9.62 54.23 C-12.69 52.4 -12.69 52.4 -15.62 51.23 C-15.65 47.94 -15.67 44.64 -15.69 41.35 C-15.7 39.95 -15.7 39.95 -15.71 38.51 C-15.71 37.62 -15.72 36.72 -15.72 35.8 C-15.73 34.97 -15.73 34.14 -15.74 33.29 C-15.62 31.23 -15.62 31.23 -14.62 29.23 C-12.63 28.21 -10.63 27.21 -8.62 26.23 C-6.1 23.71 -6.35 22.78 -6.28 19.29 C-6.24 17.82 -6.24 17.82 -6.19 16.33 C-6.16 14.79 -6.16 14.79 -6.12 13.23 C-6.08 11.21 -6.03 9.19 -5.97 7.16 C-5.95 6.27 -5.93 5.37 -5.91 4.44 C-5.39 0.4 -3.89 0.24 0 0 Z " fill="#000102" transform="translate(570.62353515625,174.77294921875)"/>
<path d="M0 0 C8.71 2.92 17.1 3.36 26.19 3.64 C31.94 3.88 37.17 4.73 42.75 6.12 C38.74 11.19 34.51 15.22 29.37 19.12 C26.75 21.07 26.75 21.07 24.45 23.19 C18.46 28.19 12.96 29.26 5.26 28.77 C-0.8 28.08 -6.58 26.23 -12.34 24.26 C-17.82 22.39 -22.73 21.02 -28.47 22.82 C-35.58 26.64 -40.64 30.13 -43.25 38.12 C-44.32 42.47 -45.17 46.85 -46 51.25 C-46.23 52.42 -46.47 53.58 -46.71 54.79 C-46.92 55.91 -47.14 57.04 -47.36 58.2 C-47.55 59.21 -47.75 60.23 -47.95 61.28 C-48.26 64.22 -48.13 66.31 -47.25 69.12 C-43.5 72.08 -40.46 72.29 -35.88 71.94 C-32.38 71.52 -29.08 70.88 -25.69 69.94 C-24.55 69.67 -23.42 69.4 -22.25 69.12 C-21.59 69.78 -20.93 70.44 -20.25 71.12 C-47.32 103.17 -47.32 103.17 -65.63 105.57 C-73.93 105.99 -79.87 104.59 -86.25 99.12 C-90.96 93.56 -90.75 88.12 -90.25 81.12 C-89.39 75.1 -88.07 69.14 -86.81 63.19 C-86.48 61.59 -86.15 59.98 -85.83 58.38 C-83.55 47.31 -83.55 47.31 -82.66 43.78 C-82.15 41.7 -82.08 39.77 -82.06 37.62 C-82.05 36.87 -82.03 36.12 -82.02 35.34 C-82.11 33.08 -82.11 33.08 -83.32 31.16 C-84.25 29.12 -84.25 29.12 -84.31 26.76 C-82.69 22.72 -79.66 20.62 -76.31 17.94 C-75.03 16.88 -73.75 15.83 -72.47 14.77 C-71.9 14.31 -71.33 13.85 -70.75 13.37 C-69.12 12.05 -69.12 12.05 -67.25 10.12 C-60.43 9.27 -53.81 11.48 -48.3 15.57 C-47.73 16.04 -47.15 16.52 -46.56 17 C-43.42 19.55 -43.42 19.55 -39.95 18.51 C-36.11 17.07 -33.15 15.34 -29.77 13.03 C-29.18 12.63 -28.6 12.24 -28 11.83 C-26.16 10.58 -24.33 9.32 -22.5 8.06 C-20.65 6.8 -18.81 5.54 -16.96 4.28 C-15.29 3.15 -13.62 2 -11.96 0.86 C-7.18 -2.2 -5.23 -1.76 0 0 Z " fill="#FBFDFD" transform="translate(909.25,376.875)"/>
<path d="M0 0 C6.37 -0.03 12.74 -0.04 19.12 -0.05 C21.29 -0.06 23.45 -0.07 25.62 -0.08 C28.74 -0.09 31.85 -0.09 34.96 -0.1 C35.93 -0.1 36.91 -0.11 37.91 -0.11 C38.81 -0.11 39.71 -0.11 40.64 -0.11 C41.44 -0.12 42.23 -0.12 43.05 -0.12 C45 0 45 0 47 1 C47.33 22.12 47.66 43.24 48 65 C49.65 65.66 51.3 66.32 53 67 C53 67.66 53 68.32 53 69 C53.66 69 54.32 69 55 69 C55 75.6 55 82.2 55 89 C47.35 89.07 39.69 89.13 32.04 89.16 C29.43 89.18 26.83 89.2 24.22 89.23 C20.48 89.26 16.75 89.28 13.01 89.29 C11.84 89.31 10.67 89.32 9.46 89.34 C8.38 89.34 7.3 89.34 6.18 89.34 C5.23 89.35 4.27 89.35 3.29 89.36 C2.53 89.24 1.78 89.12 1 89 C-1.51 85.24 -1.26 82.28 -1.19 77.94 C-1.19 77.2 -1.19 76.47 -1.19 75.72 C-1.14 70.28 -1.14 70.28 0 68 C1.98 66.95 3.97 65.95 6 65 C6.05 59.64 6.09 54.29 6.11 48.93 C6.12 47.11 6.13 45.28 6.15 43.46 C6.18 40.84 6.19 38.22 6.2 35.61 C6.21 34.79 6.22 33.97 6.23 33.13 C6.23 29.23 6.22 27.32 4 24 C3.14 23.64 2.28 23.28 1.4 22.91 C-1 21 -1 21 -1.42 19.02 C-1.53 16.47 -1.48 13.98 -1.38 11.44 C-1.36 10.56 -1.35 9.69 -1.33 8.78 C-1.18 2.37 -1.18 2.37 0 0 Z " fill="#000102" transform="translate(496,204)"/>
<path d="M0 0 C4 2.7 6.83 6.1 8.51 10.66 C9.75 18.42 8.17 25.65 6.62 33.25 C6.4 34.39 6.18 35.53 5.94 36.7 C4.4 44.51 2.79 52.3 1.04 60.06 C0.21 63.86 -0.12 67.01 -0.12 70.94 C6.8 71.43 6.8 71.43 13.88 71.94 C9.5 82.88 0.6 89.19 -9.38 94.75 C-15.55 96.7 -22.39 98.23 -28.67 96.05 C-32.9 93.6 -34.58 91.63 -36.12 86.94 C-36.59 75.73 -33.19 63.88 -31.06 52.92 C-27.25 34.85 -27.25 34.85 -30.12 16.94 C-24.38 11.94 -24.38 11.94 -22.12 11.94 C-21.85 11.35 -21.58 10.77 -21.3 10.16 C-20.13 7.95 -18.87 6.21 -17.25 4.31 C-16.76 3.72 -16.27 3.13 -15.76 2.52 C-11.15 -1.95 -5.93 -2.02 0 0 Z " fill="#FBFDFD" transform="translate(553.125,454.0625)"/>
<path d="M0 0 C0.5 0.5 0.5 0.5 1 1 C0.87 24.61 -4.25 52.87 -20 71 C-24.54 74.99 -24.54 74.99 -26.94 75.06 C-32.73 72.08 -35.82 68.63 -38.18 62.64 C-42.39 49.1 -40.72 36.16 -36 23 C-35.78 22.26 -35.55 21.53 -35.32 20.77 C-30.73 5.79 -30.73 5.79 -26.27 2.87 C-21.95 1.22 -17.6 1.11 -13 1 C-4.25 -0.2 -4.25 -0.2 0 0 Z " fill="#000102" transform="translate(410,446)"/>
<path d="M0 0 C4.41 2.49 6.21 5.33 8 10 C8.45 14.14 8.44 18.25 8.43 22.41 C8.44 23.6 8.44 24.8 8.45 26.04 C8.46 28.57 8.45 31.09 8.45 33.62 C8.44 37.49 8.47 41.35 8.5 45.21 C8.5 47.67 8.5 50.13 8.5 52.59 C8.51 54.32 8.51 54.32 8.53 56.09 C8.48 62.36 8.26 66.25 4 71 C1.63 73.1 0.07 73.95 -3.11 74.09 C-8.38 73.74 -11.86 72.43 -16 69 C-18.79 64.81 -19.12 61.11 -19.16 56.15 C-19.17 55.22 -19.18 54.28 -19.19 53.32 C-19.19 52.32 -19.2 51.32 -19.2 50.29 C-19.21 49.25 -19.21 48.21 -19.22 47.14 C-19.23 44.95 -19.24 42.75 -19.24 40.55 C-19.25 37.21 -19.28 33.87 -19.31 30.52 C-19.32 28.38 -19.32 26.24 -19.33 24.11 C-19.34 23.11 -19.35 22.12 -19.37 21.1 C-19.35 15.03 -18.61 10.51 -16 5 C-10.92 0.16 -6.87 -0.85 0 0 Z " fill="#FBFDFD" transform="translate(302,196)"/>
<path d="M0 0 C0.72 -0 1.44 -0 2.18 -0 C3.7 0 5.22 0.01 6.73 0.03 C9.05 0.05 11.37 0.05 13.69 0.04 C15.17 0.05 16.65 0.05 18.12 0.06 C18.82 0.06 19.51 0.06 20.22 0.06 C24.16 0.12 25.99 0.54 29.63 2.36 C29.63 11.6 29.63 20.84 29.63 30.36 C24.09 30.39 18.56 30.41 13.02 30.42 C11.14 30.42 9.25 30.43 7.37 30.44 C4.66 30.45 1.96 30.46 -0.74 30.46 C-1.59 30.47 -2.44 30.47 -3.31 30.48 C-5.33 30.48 -7.35 30.43 -9.37 30.36 C-12.02 27.71 -10.61 20.05 -10.62 16.49 C-10.64 15.28 -10.66 14.07 -10.68 12.82 C-10.69 11.66 -10.69 10.5 -10.7 9.31 C-10.71 8.24 -10.72 7.17 -10.73 6.07 C-10.37 3.36 -10.37 3.36 -9.31 1.51 C-6.34 -0.25 -3.36 -0.04 0 0 Z " fill="#000102" transform="translate(513.37109375,165.63671875)"/>
<path d="M0 0 C1.24 0.25 2.48 0.51 3.75 0.77 C6.82 1.7 8.19 2.16 10 4.75 C10.12 7 10.12 7 9 9.75 C7.97 10.8 6.9 11.82 5.81 12.81 C-1.74 20.01 -4.55 28.97 -5.58 39.13 C-6 41.75 -6 41.75 -8 43.75 C-12.99 43.52 -16.17 41.9 -20 38.75 C-23.67 33.31 -24.51 27.5 -23.63 21.08 C-21.7 12.63 -17.41 4.58 -10 -0.25 C-6.17 -1.53 -3.94 -0.84 0 0 Z " fill="#000102" transform="translate(646,456.25)"/>
<path d="M0 0 C1.57 0.73 3.11 1.53 4.62 2.38 C5.76 2.96 6.9 3.55 8.07 4.16 C11.29 5.84 14.46 7.59 17.62 9.38 C17.62 10.04 17.62 10.69 17.62 11.38 C18.62 11.7 19.61 12.04 20.62 12.38 C19.55 13.11 18.48 13.85 17.37 14.61 C15.93 15.59 14.5 16.58 13.06 17.56 C12.36 18.05 11.65 18.53 10.93 19.03 C10.23 19.51 9.53 19.99 8.81 20.48 C8.11 20.96 7.41 21.44 6.68 21.93 C5.34 22.88 4.01 23.85 2.71 24.85 C0.23 26.76 -1.82 28.25 -4.91 28.93 C-8.4 28.15 -10.88 26.5 -13.88 24.56 C-14.98 23.85 -16.08 23.15 -17.22 22.42 C-18.78 21.41 -18.78 21.41 -20.38 20.38 C-22.04 19.37 -23.7 18.36 -25.38 17.38 C-23.19 12.39 -19.58 9.68 -15.38 6.38 C-14.5 5.68 -13.62 4.98 -12.72 4.26 C-4.82 -1.45 -4.82 -1.45 0 0 Z " fill="#FBFDFD" transform="translate(557.375,409.625)"/>
<path d="M0 0 C4.29 4.91 4.6 8.86 4.44 15.06 C4.44 15.85 4.45 16.64 4.46 17.46 C4.41 22.06 4.08 25.33 1 29 C-4.89 31.17 -10.76 31.5 -17 31 C-17.66 30.67 -18.32 30.34 -19 30 C-19.74 20.41 -16.51 10.85 -11 3 C-7.45 0.1 -4.55 -0.87 0 0 Z " fill="#000102" transform="translate(762,416)"/>
<path d="M0 0 C3.81 2.05 5.26 6.15 6.86 10 C8.24 14.85 8.42 17.85 6.17 22.44 C3.41 25.5 1.49 26.75 -2.59 27.37 C-9.76 27.55 -15.2 26.13 -21.14 22 C-21.8 21.01 -22.46 20.02 -23.14 19 C-19.73 15.54 -16.24 12.21 -12.64 8.94 C-11.73 8.1 -10.81 7.26 -9.86 6.4 C-8.97 5.61 -8.07 4.82 -7.14 4 C-6.29 3.22 -5.43 2.44 -4.55 1.63 C-2.14 0 -2.14 0 0 0 Z " fill="#000102" transform="translate(639.14453125,505)"/>
<path d="M0 0 C2.79 2.88 3.25 5.62 3.5 9.5 C3.37 13.11 3.03 13.96 0.81 17.06 C-2 19 -2 19 -4.5 19.56 C-8.06 18.76 -9.58 17.76 -12 15 C-13 11.94 -13.3 9.2 -13 6 C-9.57 -0.62 -7.25 -1.78 0 0 Z " fill="#FBFDFD" transform="translate(999,251)"/>
</svg>
